<svg xmlns="http://www.w3.org/2000/svg" width="898" height="861" viewBox="0 0 898 861" fill="none">
<path d="M668.149 551.192C667.435 552.353 666.275 554.495 665.829 555.745C623.962 638.318 538.354 694.914 439.445 694.914C299.384 694.914 185.746 581.365 185.746 441.215C185.746 366.855 217.704 299.993 268.676 253.574C302.687 221.169 345 197.335 391.955 185.462C397.132 184.123 402.399 182.963 407.755 181.981C408.648 181.802 409.451 181.713 410.344 181.535C414.629 180.731 419.003 180.017 423.377 179.481C424.984 179.303 426.502 179.124 428.108 178.857C431.947 178.41 435.875 178.053 439.803 177.785C441.409 177.696 442.927 177.517 444.534 177.428C449.89 177.16 455.246 176.893 460.691 176.893C465.333 176.893 469.886 176.982 474.439 177.25C475.956 177.25 477.384 177.428 478.813 177.518C481.848 177.696 484.883 177.875 487.918 178.232C489.703 178.41 491.399 178.589 493.185 178.857C495.952 179.214 498.63 179.481 501.308 179.928C503.183 180.195 504.968 180.553 506.842 180.82C509.431 181.267 512.02 181.713 514.52 182.159C516.394 182.516 518.18 182.874 520.054 183.32C522.554 183.856 525.053 184.391 527.553 185.016C529.338 185.462 531.213 185.909 532.998 186.444C535.498 187.069 537.908 187.783 540.318 188.498C542.103 189.033 543.889 189.569 545.585 190.104C548.084 190.908 550.494 191.711 552.905 192.604C554.601 193.229 556.297 193.764 557.904 194.389C560.403 195.371 562.903 196.353 565.402 197.335C566.92 197.96 568.437 198.585 569.955 199.21C572.722 200.37 575.489 201.709 578.257 202.959C579.417 203.495 580.578 204.03 581.738 204.566C585.666 206.44 589.505 208.404 593.254 210.457C593.789 210.725 594.236 211.082 594.771 211.35C597.985 213.135 601.199 215.01 604.412 216.885C605.662 217.688 606.912 218.491 608.161 219.205C610.572 220.723 612.893 222.151 615.214 223.758C616.642 224.74 617.981 225.722 619.409 226.704C621.552 228.222 623.694 229.65 625.747 231.168C627.176 232.239 628.604 233.31 630.032 234.381C631.996 235.899 633.96 237.416 635.924 239.023C637.352 240.183 638.691 241.344 640.12 242.505C700.732 293.655 739.207 370.068 739.207 455.587C739.207 460.496 739.474 482.59 739.207 487.5C755.007 456.346 763.487 403.901 763.487 366.497C763.487 307.759 743.313 255.716 707.784 215.546C707.784 215.546 707.16 214.921 707.249 214.921C641.994 136.811 543.8 87 434 87C237.432 87 78 246.343 78 443C78 639.657 237.343 799 434 799C535.765 799 627.533 756.241 692.43 687.772C701.536 693.218 724.21 707.679 741.17 725.176C743.402 727.139 746.348 728.389 749.562 728.389C756.257 728.389 761.702 723.033 762.059 716.427C762.059 716.427 770.004 631.444 710.552 550.746C710.552 550.746 710.552 550.657 710.463 550.568C710.016 549.943 709.481 549.407 708.945 548.782C704.214 543.069 697.251 539.409 689.217 539.409C680.201 539.409 672.345 544.051 667.703 551.103" fill="url(#paint0_linear_10666_27490)"/>
<path d="M668.626 551.41C667.928 552.571 666.794 554.713 666.358 555.963C625.437 638.536 542.953 713.914 446.279 713.914C309.382 713.914 198.312 600.365 198.312 460.215C198.312 385.855 229.548 318.993 279.368 272.574C312.611 240.169 353.968 216.335 399.862 204.462C404.922 203.123 410.07 201.963 415.305 200.981C416.178 200.802 416.963 200.713 417.835 200.535C422.023 199.731 426.299 199.017 430.574 198.481C432.145 198.303 433.628 198.124 435.198 197.857C438.95 197.41 442.789 197.053 446.628 196.785C448.199 196.696 449.682 196.517 451.253 196.428C456.488 196.16 461.723 195.893 467.045 195.893C471.582 195.893 476.032 195.982 480.482 196.25C481.965 196.25 483.361 196.428 484.757 196.518C487.723 196.696 490.69 196.875 493.656 197.232C495.401 197.41 497.059 197.589 498.804 197.857C501.509 198.214 504.126 198.481 506.744 198.928C508.576 199.195 510.321 199.553 512.154 199.82C514.684 200.267 517.214 200.713 519.657 201.159C521.49 201.516 523.234 201.874 525.067 202.32C527.51 202.856 529.953 203.391 532.396 204.016C534.141 204.462 535.973 204.909 537.718 205.444C540.161 206.069 542.517 206.783 544.873 207.498C546.618 208.033 548.363 208.569 550.021 209.104C552.464 209.908 554.819 210.711 557.175 211.604C558.833 212.229 560.491 212.764 562.061 213.389C564.504 214.371 566.947 215.353 569.39 216.335C570.874 216.96 572.357 217.585 573.84 218.21C576.545 219.37 579.25 220.709 581.954 221.959C583.089 222.495 584.223 223.03 585.357 223.566C589.196 225.44 592.948 227.404 596.613 229.457C597.136 229.725 597.572 230.082 598.096 230.35C601.237 232.135 604.378 234.01 607.519 235.885C608.74 236.688 609.962 237.491 611.183 238.205C613.539 239.723 615.808 241.151 618.076 242.758C619.472 243.74 620.781 244.722 622.177 245.704C624.271 247.222 626.365 248.65 628.372 250.168C629.768 251.239 631.164 252.31 632.56 253.381C634.479 254.899 636.399 256.416 638.319 258.023C639.715 259.183 641.023 260.344 642.419 261.505C701.663 312.655 739.268 389.068 739.268 474.587C739.268 479.496 739.093 484.406 738.832 489.316C754.275 458.161 763 422.901 763 385.497C763 326.759 743.281 274.716 708.555 234.546C708.555 234.546 707.945 233.921 708.032 233.921C644.252 155.811 548.276 106 440.957 106C248.83 106 93 265.343 93 462C93 658.657 248.743 818 440.957 818C540.423 818 629.43 756.565 692.861 688.097C701.761 693.542 722.5 706.5 739.5 723.5C741.681 725.464 745.561 728.714 748.702 728.714C755.245 728.714 761.651 722.606 762 716C762 716 770 632.5 710.07 550.964C710.07 550.964 710.071 550.875 709.983 550.785C709.547 550.161 709.023 549.625 708.5 549C703.876 543.287 697.07 539.627 689.218 539.627C680.405 539.627 672.727 544.269 668.19 551.321" fill="url(#paint1_linear_10666_27490)"/>
<path d="M184.124 655.302C189.358 655.302 193.601 651.059 193.601 645.825C193.601 640.591 189.358 636.347 184.124 636.347C178.89 636.347 174.646 640.591 174.646 645.825C174.646 651.059 178.89 655.302 184.124 655.302Z" stroke="white" stroke-width="2" stroke-miterlimit="10"/>
<path d="M184.125 666.278C195.421 666.278 204.579 657.121 204.579 645.824C204.579 634.528 195.421 625.37 184.125 625.37C172.828 625.37 163.671 634.528 163.671 645.824C163.671 657.121 172.828 666.278 184.125 666.278Z" stroke="white" stroke-width="1.8376" stroke-miterlimit="10"/>
<path d="M184.124 677.264C201.488 677.264 215.564 663.188 215.564 645.824C215.564 628.461 201.488 614.385 184.124 614.385C166.761 614.385 152.685 628.461 152.685 645.824C152.685 663.188 166.761 677.264 184.124 677.264Z" stroke="white" stroke-width="1.6752" stroke-miterlimit="10"/>
<path d="M184.124 688.241C207.55 688.241 226.541 669.25 226.541 645.824C226.541 622.398 207.55 603.408 184.124 603.408C160.699 603.408 141.708 622.398 141.708 645.824C141.708 669.25 160.699 688.241 184.124 688.241Z" stroke="white" stroke-width="1.5128" stroke-miterlimit="10"/>
<path d="M221.876 683.584C242.731 662.729 242.731 628.917 221.876 608.062C201.021 587.207 167.209 587.207 146.354 608.062C125.5 628.917 125.5 662.729 146.354 683.584C167.209 704.438 201.021 704.438 221.876 683.584Z" stroke="white" stroke-width="1.3504" stroke-miterlimit="10"/>
<path d="M229.637 691.345C254.779 666.204 254.779 625.442 229.637 600.301C204.496 575.159 163.734 575.159 138.593 600.301C113.451 625.442 113.451 666.204 138.593 691.345C163.734 716.487 204.496 716.487 229.637 691.345Z" stroke="white" stroke-width="1.1881" stroke-miterlimit="10"/>
<path d="M237.407 699.113C266.838 669.682 266.838 621.964 237.407 592.532C207.975 563.101 160.257 563.101 130.826 592.532C101.394 621.964 101.394 669.682 130.826 699.113C160.257 728.545 207.975 728.545 237.407 699.113Z" stroke="white" stroke-width="1.0257" stroke-miterlimit="10"/>
<path d="M245.168 706.875C278.886 673.157 278.886 618.489 245.168 584.771C211.45 551.053 156.782 551.053 123.064 584.771C89.3457 618.489 89.3457 673.157 123.064 706.875C156.782 740.593 211.45 740.593 245.168 706.875Z" stroke="white" stroke-width="0.8633" stroke-miterlimit="10"/>
<path d="M252.935 714.643C290.944 676.635 290.944 615.011 252.935 577.003C214.927 538.994 153.303 538.994 115.295 577.003C77.2866 615.011 77.2866 676.635 115.295 714.643C153.303 752.651 214.927 752.651 252.935 714.643Z" stroke="white" stroke-width="0.7009" stroke-miterlimit="10"/>
<path d="M260.697 722.405C302.992 680.11 302.992 611.536 260.697 569.241C218.402 526.946 149.829 526.946 107.534 569.241C65.2388 611.536 65.2388 680.11 107.534 722.405C149.829 764.699 218.402 764.699 260.697 722.405Z" stroke="white" stroke-width="0.5385" stroke-miterlimit="10"/>
<path d="M268.465 730.173C315.05 683.588 315.05 608.058 268.465 561.473C221.88 514.888 146.35 514.888 99.7649 561.473C53.1798 608.058 53.1798 683.588 99.765 730.173C146.35 776.758 221.88 776.758 268.465 730.173Z" stroke="white" stroke-width="0.3761" stroke-miterlimit="10"/>
<path d="M276.227 737.934C327.099 687.062 327.099 604.583 276.227 553.711C225.355 502.84 142.876 502.84 92.0041 553.711C41.1323 604.583 41.1323 687.062 92.0041 737.934C142.876 788.806 225.355 788.806 276.227 737.934Z" stroke="white" stroke-width="0.2137" stroke-miterlimit="10"/>
<defs>
<linearGradient id="paint0_linear_10666_27490" x1="763.487" y1="393.841" x2="78.6293" y2="393.841" gradientUnits="userSpaceOnUse">
<stop stop-color="#FFE80D"/>
<stop offset="1" stop-color="#F7AF02"/>
</linearGradient>
<linearGradient id="paint1_linear_10666_27490" x1="84.5224" y1="748.845" x2="692.237" y2="684.815" gradientUnits="userSpaceOnUse">
<stop stop-color="#FFE80D"/>
<stop offset="0.48298" stop-color="#F7AF02"/>
<stop offset="0.821997" stop-color="#E3A100" stop-opacity="0.2"/>
</linearGradient>
</defs>
</svg>