<svg xmlns="http://www.w3.org/2000/svg" width="226" height="253" viewBox="0 0 226 253" fill="none">
    <path
        d="M201.961 185.049L201.883 196.775C201.857 209.216 193.676 221.656 177.338 231.129C144.43 250.254 90.9258 250.254 57.8114 231.129C41.1639 221.527 32.8273 208.907 32.8791 196.285L32.931 184.609C32.931 197.205 41.2419 209.826 57.8632 219.401C90.9777 238.526 144.507 238.526 177.389 219.401C193.727 209.93 201.909 197.489 201.961 185.049Z"
        fill="#FFE071" />
    <path
        d="M177.389 219.402C153.432 233.336 118.537 237.068 88.54 230.698V242.436C118.519 248.79 153.376 245.055 177.337 231.129C193.675 221.657 201.857 209.217 201.883 196.776L201.96 185.049C201.909 197.489 193.727 209.93 177.389 219.402Z"
        fill="#FFE071" />
    <path
        d="M177.004 150.178C210.118 169.296 210.293 200.3 177.405 219.412C144.506 238.53 90.9921 238.524 57.8782 219.406C24.776 200.294 24.6015 169.304 57.5006 150.185C90.3882 131.073 143.901 131.066 177.004 150.178Z"
        fill="#FFFBEB" />
    <path
        d="M198.399 184.935C198.427 196.639 190.376 207.806 175.757 216.4C160.353 225.446 139.751 230.451 117.723 230.451C95.6952 230.451 75.0371 225.447 59.5223 216.4C28.8996 198.495 28.777 171.03 59.1307 153.187C74.5339 144.14 95.1639 139.165 117.164 139.165C139.192 139.165 159.85 144.14 175.365 153.187C190.209 161.866 198.399 173.118 198.399 184.935Z"
        fill="white" />
    <path
        d="M183.007 157.33L182.956 181.25C182.929 190.904 176.586 200.543 163.917 207.906C138.401 222.734 96.8984 222.729 71.2165 207.901C58.299 200.443 51.8467 190.653 51.8741 180.876L51.9241 156.957C51.8967 166.733 58.3484 176.523 71.2665 183.982C96.9484 198.809 138.451 198.814 163.967 183.986C176.637 176.623 182.98 166.985 183.007 157.33Z"
        fill="#F4E8CB" />
    <path
        d="M163.973 183.987C151.615 191.17 135.502 194.839 119.256 195.062V218.98C135.486 218.75 151.577 215.082 163.923 207.907C176.593 200.544 182.936 190.905 182.962 181.251L183.013 157.331C182.986 166.985 176.644 176.624 163.973 183.987Z"
        fill="#F4E8CB" />
    <path
        d="M184.913 163.106L184.861 174.667C184.833 184.597 178.309 194.511 165.277 202.085C139.033 217.336 96.3444 217.33 69.9287 202.08C56.6422 194.409 50.0056 184.339 50.0343 174.283L50.0861 162.722C50.0574 172.778 56.694 182.848 69.9811 190.519C96.3968 205.77 139.085 205.775 165.33 190.524C178.361 182.95 184.885 173.036 184.913 163.106Z"
        fill="#F4E9CB" />
    <path
        d="M165.008 135.293C191.424 150.545 191.563 175.277 165.328 190.523C139.084 205.774 96.3952 205.768 69.9796 190.518C43.5736 175.272 43.4346 150.551 69.6782 135.299C95.9134 120.054 138.601 120.048 165.008 135.293Z"
        fill="#FFFCEB" />
    <path
        d="M161.73 135.384C186.322 149.435 186.452 172.222 162.028 186.268C137.596 200.32 97.8544 200.315 73.2626 186.264C48.6793 172.217 48.55 149.44 72.982 135.388C97.4055 121.342 137.147 121.337 161.73 135.384Z"
        fill="#AF8928" />
    <path
        d="M73.093 186.219C50.4646 173.157 50.3457 153.678 72.8069 140.624C97.0956 126.507 137.155 126.509 161.598 140.624C184.22 153.685 184.374 173.174 161.903 186.23C137.618 200.346 97.5592 200.345 73.093 186.219Z"
        fill="url(#paint0_linear_7978_18925)" />
    <path
        d="M189.476 201.109C189.156 201.298 188.763 201.429 188.342 201.502C187.833 201.589 187.28 201.589 186.772 201.487C184.191 201.01 184.415 198.875 186.786 198.536C187.295 198.448 187.848 198.448 188.356 198.536C188.763 198.594 189.156 198.725 189.476 198.914C190.522 199.524 190.522 200.499 189.476 201.109Z"
        fill="#FFED48" />
    <path
        d="M179.835 185.697C179.444 186.534 178.735 187.456 177.941 187.919C176.046 189.005 175.079 187.135 175.875 185.212C176.177 184.275 176.936 183.154 177.925 182.567C179.208 181.832 180.916 183.279 179.835 185.697Z"
        fill="white" />
    <path
        d="M188.372 191.076L188.357 198.535L188.343 201.472C188.343 201.487 188.343 201.487 188.343 201.502C187.834 201.589 187.281 201.589 186.773 201.487C186.786 196.806 186.803 191.175 186.801 191.513C186.524 191.353 175.605 185.057 175.882 185.217C176.042 184.722 176.29 184.258 176.595 183.835C176.868 183.993 183.518 187.816 183.094 187.572L187.979 190.393C188.212 190.538 188.372 190.8 188.372 191.076Z"
        fill="#683F10" />
    <path
        d="M45.4029 201.109C45.7225 201.298 46.1153 201.428 46.5368 201.501C47.0455 201.589 47.5982 201.589 48.1069 201.487C48.4997 201.414 48.8773 201.298 49.1829 201.109C50.7145 200.215 49.827 198.783 48.0922 198.535C45.3443 198.064 43.4729 199.983 45.4029 201.109Z"
        fill="#FFED48" />
    <path
        d="M54.6201 183.897C54.6201 185.471 55.751 187.228 56.9362 187.92C59.2535 189.248 60.1038 186.294 58.2818 183.835C56.9216 181.822 54.6201 181.623 54.6201 183.897Z"
        fill="white" />
    <path
        d="M46.5107 191.076C46.5114 191.357 46.5412 202.088 46.54 201.501C47.0487 201.588 47.6014 201.588 48.1101 201.486C48.1101 201.472 48.1101 201.472 48.1101 201.457C48.1095 201.177 48.0796 190.925 48.0814 191.512C48.3584 191.352 59.2782 185.057 59.0006 185.217C58.8408 184.722 58.5938 184.257 58.2882 183.835C58.0143 183.992 51.3643 187.816 51.7889 187.572L46.9036 190.392C46.6699 190.538 46.5107 190.8 46.5107 191.076Z"
        fill="#683F10" />
    <path
        d="M72.0428 219.643C73.1323 219.829 74.1729 219.569 74.6889 219.25C76.2206 218.356 75.3331 216.924 73.5983 216.676C72.7535 216.532 71.6494 216.616 70.9083 217.054C69.8622 217.665 70.1251 219.311 72.0428 219.643Z"
        fill="#FFED48" />
    <path
        d="M80.5442 203.839C81.9392 206.825 84.7701 207.233 84.7701 204.731C84.7701 203.256 83.76 201.485 82.454 200.709C81.1706 199.974 79.4627 201.421 80.5442 203.839Z"
        fill="white" />
    <path
        d="M72.0107 209.216C72.0114 209.497 72.0412 220.228 72.04 219.641C72.5487 219.728 73.1014 219.728 73.6101 219.627C73.6095 219.346 73.5796 209.065 73.5814 209.652C73.8553 209.494 85.0734 203.027 84.5006 203.357C84.3408 202.862 84.0932 202.397 83.7882 201.975C83.5143 202.132 76.8643 205.956 77.2889 205.712L72.4036 208.532C72.1706 208.678 72.0107 208.94 72.0107 209.216Z"
        fill="#683F10" />
    <path
        d="M163.315 219.249C162.995 219.438 162.602 219.569 162.181 219.642C161.672 219.729 161.12 219.729 160.611 219.627C160.218 219.555 159.841 219.438 159.535 219.249C158.488 218.639 158.488 217.665 159.52 217.054C159.84 216.865 160.218 216.734 160.625 216.676C161.134 216.589 161.686 216.589 162.195 216.676C162.602 216.734 162.995 216.865 163.314 217.054C164.362 217.665 164.362 218.639 163.315 219.249Z"
        fill="#FFED48" />
    <path
        d="M153.679 203.838C153.288 204.675 152.58 205.596 151.785 206.06C149.891 207.146 148.923 205.276 149.719 203.352C150.021 202.416 150.781 201.295 151.77 200.708C153.053 199.972 154.761 201.42 153.679 203.838Z"
        fill="white" />
    <path
        d="M162.21 209.219L162.195 216.677L162.181 219.614C162.181 219.629 162.181 219.629 162.181 219.644C161.672 219.731 161.119 219.731 160.611 219.629C160.611 219.614 160.611 219.614 160.611 219.6L160.625 216.677L160.64 209.655L155.376 206.616C155.103 206.458 149.356 203.149 149.721 203.359C149.881 202.864 150.128 202.4 150.433 201.978C150.707 202.135 157.357 205.958 156.933 205.714L161.818 208.535C162.05 208.681 162.21 208.942 162.21 209.219Z"
        fill="#683F10" />
    <path opacity="0.3"
        d="M219.431 12.3418L180.351 166.691C178.696 173.258 173.224 179.478 164.521 184.523C140.899 198.288 101.756 198.333 77.7392 184.523C68.9832 179.451 63.4312 173.258 61.6959 166.691H61.6425L23.8174 12.3418H219.431Z"
        fill="url(#paint1_linear_7978_18925)" />
    <defs>
        <linearGradient id="paint0_linear_7978_18925" x1="56.041" y1="130.037" x2="85.0524"
            y2="213.785" gradientUnits="userSpaceOnUse">
            <stop offset="0.170844" stop-color="#FFE753" />
            <stop offset="0.82116" stop-color="#FEC538" />
        </linearGradient>
        <linearGradient id="paint1_linear_7978_18925" x1="121.624" y1="244.175" x2="121.624"
            y2="27.6236" gradientUnits="userSpaceOnUse">
            <stop offset="0.3128" stop-color="#E4DE49" />
            <stop offset="0.5321" stop-color="#E4C249" />
            <stop offset="0.6432" stop-color="#E9BD4D" />
            <stop offset="0.8585" stop-color="#F7D457" stop-opacity="0" />
        </linearGradient>
    </defs>
</svg>