<svg width="24" height="21" viewBox="0 0 24 21" fill="none" xmlns="http://www.w3.org/2000/svg">
    <circle cx="11.8714" cy="10.5472" r="3.57065" fill="#FF9B02" />
    <path
        d="M17.8126 13.9844L20.1113 13.9844C20.2038 14.8416 20.4719 15.0293 20.963 15.6091H17.5117C18.8941 15.6091 18.6507 13.9844 17.8126 13.9844Z"
        fill="#CD7B03" />
    <path
        d="M15.8555 17.3984L18.1543 17.3984C18.2468 18.2557 18.5149 18.4433 19.0059 19.0231H15.5547C16.9371 19.0231 16.6936 17.3984 15.8555 17.3984Z"
        fill="#CD7B03" />
    <path
        d="M16.4703 12.1641L22.9807 12.1641C22.6426 12.7393 21.7914 13.8826 20.6244 13.9894H15.2401C16.0528 13.1266 16.2976 12.7158 16.4703 12.1641Z"
        fill="#FF9B02" />
    <path
        d="M9.93226 15.6095H20.968C20.6299 16.1847 19.8318 17.3477 18.4686 17.4015L7.73987 17.4348C8.43525 16.5944 8.87222 16.182 9.93226 15.6095Z"
        fill="#FF9B02" />
    <path
        d="M8.06289 19.0256H19.0063C18.6239 19.7309 17.535 20.8177 16.417 20.8177L5.75 20.8509C6.44538 20.0105 7.00286 19.5981 8.06289 19.0256Z"
        fill="#FF9B02" />
    <path
        d="M5.41054 14.1534L4.18969 16.1011C3.41423 15.7242 3.11283 15.8518 2.36078 15.9599L4.19369 13.0356C3.45954 14.2069 4.96543 14.8635 5.41054 14.1534Z"
        fill="#CD7B03" />
    <path
        d="M3.55898 10.6768L2.33813 12.6246C1.56267 12.2476 1.26127 12.3752 0.509214 12.4833L2.34213 9.55902C1.60797 10.7303 3.11387 11.3869 3.55898 10.6768Z"
        fill="#CD7B03" />
    <path
        d="M7.66983 13.9819L4.21223 19.4983C3.90436 18.9063 3.38775 17.5779 3.91698 16.5324L6.77657 11.9701C7.07602 13.117 7.29407 13.5426 7.66983 13.9819Z"
        fill="#FF9B02" />
    <path
        d="M8.22278 6.61231L2.36184 15.963C2.05396 15.3711 1.49244 14.0772 2.17079 12.8936L7.84049 3.78525C8.18331 4.82081 8.30068 5.41009 8.22278 6.61231Z"
        fill="#FF9B02" />
    <path
        d="M6.32104 3.2141L0.509099 12.4866C0.114559 11.7881 -0.227904 10.2882 0.365806 9.34097L6.00275 0.284928C6.34556 1.32049 6.39893 2.01187 6.32104 3.2141Z"
        fill="#FF9B02" />
    <path
        d="M12.0058 3.56759L10.8565 1.57681C11.5526 1.06811 11.581 0.742062 11.8376 0.0269205L13.5633 3.01578C12.8721 1.81862 11.5868 2.84176 12.0058 3.56759Z"
        fill="#CD7B03" />
    <path
        d="M15.9433 3.55196L14.794 1.56118C15.4901 1.05249 15.5185 0.726437 15.7751 0.0112955L17.5008 3.00016C16.8096 1.803 15.5243 2.82614 15.9433 3.55196Z"
        fill="#CD7B03" />
    <path
        d="M11.0969 5.6378L7.84167 -0.000361254C8.50891 0.0047957 9.92462 0.170369 10.6006 1.12756L13.2928 5.79057C12.1392 5.51813 11.6611 5.51153 11.0969 5.6378Z"
        fill="#FF9B02" />
    <path
        d="M17.3497 9.57723L11.8319 0.0200343C12.4991 0.0251913 13.9053 0.134875 14.6335 1.28851L20.0267 10.5632C18.9512 10.3812 18.3755 10.209 17.3497 9.57723Z"
        fill="#FF9B02" />
    <path
        d="M21.2429 9.48808L15.7711 0.0107901C16.5731 -0.0107091 18.0588 0.389012 18.6177 1.35715L23.9801 10.5784C22.9046 10.3964 22.2687 10.1199 21.2429 9.48808Z"
        fill="#FF9B02" />
</svg>