<svg xmlns="http://www.w3.org/2000/svg" width="250" height="250" viewBox="0 0 250 250" fill="none">
    <g opacity="0.5">
        <g filter="url(#filter0_f_7978_19595)">
            <path opacity="0.2"
                d="M126.79 138.914L90.5716 152.631L76.3984 195.236L85.9979 200.836C87.9542 193.904 96.6092 163.325 97.5806 160.977C98.6802 158.333 100.245 157.339 103.092 156.635C105.932 155.932 123.289 149.953 124.935 149.324C131.944 146.638 135.418 138.914 126.79 138.914Z"
                fill="black" />
            <path opacity="0.2"
                d="M57.7598 184.36L66.8667 189.676C69.8012 179.307 76.6618 155.188 77.5185 153.118C78.6181 150.473 80.1832 149.479 83.0299 148.776C85.8699 148.072 103.227 142.093 104.873 141.464C111.882 138.779 115.356 131.055 106.728 131.055L74.9483 135.201L57.7598 184.36Z"
                fill="black" />
        </g>
    </g>
    <path
        d="M51.9716 186.267L50.3525 191.753C50.3525 191.753 52.0525 195.223 54.8048 195.223C54.8048 195.223 57.9889 193.985 59.9722 191.969L61.0988 184.915L51.9716 186.267Z"
        fill="url(#paint0_linear_7978_19595)" />
    <path
        d="M60.3773 189.372C60.3773 189.372 59.2575 189.656 58.7987 190.461C58.3468 191.265 56.242 193.538 55.871 193.7C55.5 193.869 55.2099 193.058 55.3583 192.402C55.5 191.739 55.4797 190.582 54.9671 190.291C54.4544 190.001 52.208 188.824 51.6076 188.6C51.0072 188.371 50.4945 188.763 50.1235 189.405C49.7525 190.048 46.2514 194.343 45.4283 195.357C44.6053 196.372 39.9642 199.767 39.8967 200.072C39.836 200.383 39.5662 201.641 39.8967 202.284C40.2273 202.926 42.2443 204.617 43.7486 205.009C45.253 205.402 46.0355 205.05 47.0474 204.556C48.0593 204.062 59.3114 196.223 60.1007 195.601C60.8832 194.979 61.0519 194.384 60.9844 193.7C60.9237 193.017 60.6336 190.19 60.5729 189.859C60.5122 189.534 60.3773 189.372 60.3773 189.372Z"
        fill="#B46409" />
    <path
        d="M97.9717 116.35C97.9717 116.35 64.1275 132.34 61.4022 134.572C58.6836 136.804 56.3765 140.686 55.7154 146.97C55.0543 153.253 50.123 185.685 50.123 185.685C50.123 185.685 50.8651 188.249 55.3174 187.999C59.7697 187.748 62.0363 186.72 62.5692 185.476C63.1022 184.238 74.4623 150.311 74.7119 149.736C74.9615 149.154 75.3325 148.045 76.8571 147.504C78.3816 146.97 111.443 141.369 115.606 139.665C122.284 136.939 124.51 133.604 126.817 128.836C129.333 123.635 131.02 116.343 131.02 116.343H97.9717V116.35Z"
        fill="url(#paint1_linear_7978_19595)" />
    <path
        d="M71.8446 200.484L70.2256 205.97C70.2256 205.97 71.9256 209.439 74.6779 209.439C74.6779 209.439 77.8687 208.202 79.8452 206.186L80.9718 199.131L71.8446 200.484Z"
        fill="url(#paint2_linear_7978_19595)" />
    <path
        d="M80.2503 203.589C80.2503 203.589 79.1305 203.866 78.6718 204.678C78.2198 205.483 76.1151 207.755 75.7441 207.924C75.373 208.087 75.083 207.282 75.2314 206.626C75.373 205.963 75.3528 204.806 74.8401 204.516C74.3274 204.225 72.081 203.048 71.4806 202.825C70.8803 202.595 70.3676 202.987 69.9965 203.629C69.6255 204.272 66.1244 208.567 65.3014 209.582C64.4784 210.596 59.8372 213.992 59.7698 214.296C59.709 214.607 59.4392 215.865 59.7698 216.508C60.1003 217.15 62.1173 218.841 63.6217 219.234C65.126 219.626 65.9085 219.274 66.9204 218.78C67.9323 218.287 79.1845 210.447 79.9737 209.825C80.7563 209.203 80.9249 208.608 80.8575 207.924C80.7967 207.241 80.5067 204.414 80.446 204.083C80.3852 203.744 80.2503 203.589 80.2503 203.589Z"
        fill="#B46409" />
    <path
        d="M104.623 125.055C104.623 125.055 84.5134 142.133 81.788 144.365C79.0694 146.597 76.7623 150.48 76.1012 156.763C75.4401 163.047 70.0029 199.902 70.0029 199.902C70.0029 199.902 70.745 202.466 75.1973 202.216C79.6496 201.965 81.9162 200.937 82.4491 199.693C82.9821 198.455 94.8548 160.104 95.1044 159.53C95.354 158.948 95.7251 157.839 97.2496 157.298C98.7742 156.763 118.094 150.074 122.263 148.369C128.942 145.644 131.168 142.309 133.475 137.541C135.991 132.339 137.678 125.048 137.678 125.048H104.623V125.055Z"
        fill="url(#paint3_linear_7978_19595)" />
    <path
        d="M81.2158 73.2104C81.2158 73.2104 86.282 91.5132 87.8133 96.9716C89.3379 102.423 91.3077 104.243 92.1779 105.277C93.0481 106.312 94.3636 106.766 95.5981 106.312C96.8326 105.859 105.778 98.9534 105.778 98.9534L107.673 85.7302H99.3893L95.5104 91.892L87.0982 73.2104H81.2158Z"
        fill="url(#paint4_linear_7978_19595)" />
    <path
        d="M99.3888 85.7304L96.0361 91.0602C96.8524 92.3927 100.104 97.4588 103.828 100.442C104.981 99.5691 105.777 98.9468 105.777 98.9468L107.673 85.7236H99.3888V85.7304Z"
        fill="#F7DCD2" />
    <path
        d="M110.959 62.287C108.469 63.6804 101.528 74.5295 95.4971 88.8754C95.4971 88.8754 100.624 94.4082 109.198 95.9503L112.591 62.2803H110.959V62.287Z"
        fill="#D9941F" />
    <path
        d="M101.602 108.362C101.602 108.362 95.834 116.35 95.834 116.789C95.834 117.229 97.5339 125.772 103.362 128.579C109.184 131.386 119.573 133.259 128.417 131.886C137.267 130.506 138.03 128.748 138.306 127.977C138.583 127.206 141.22 100.894 141.22 100.238C141.962 93.1296 143.089 83.5724 143.366 81.036C143.642 78.4996 142.819 76.3555 142.05 75.4694C141.281 74.5902 128.754 62.74 125.071 61.3129C121.387 59.879 113.475 59.3852 110.236 62.9632C106.992 66.5413 105.454 75.0839 104.685 83.843C103.909 92.6021 101.602 108.362 101.602 108.362Z"
        fill="url(#paint5_linear_7978_19595)" />
    <path
        d="M116.133 56.7139C116.133 56.7139 114.46 67.4277 114.318 68.5572C114.183 69.6868 114.676 70.5593 117.064 70.9245C120.659 71.4792 126.353 68.3611 127.203 66.1629C128.053 63.9579 130.117 56.7139 130.117 56.7139H116.133Z"
        fill="url(#paint6_linear_7978_19595)" />
    <path
        d="M116.328 33.1282C112.537 35.2521 109.569 39.9055 109.346 44.3155C109.124 48.7255 109.596 49.1381 109.542 51.0116C109.488 52.8852 109.13 54.3191 109.542 56.8488C109.953 59.3852 111.053 63.6261 112.26 64.3701C113.468 65.1141 119.566 64.5933 124.072 62.5236C128.579 60.4606 129.705 58.1745 129.705 58.1745C129.705 58.1745 134.542 56.3009 135.365 49.2463C136.188 42.1917 135.642 36.7671 130.09 33.3785C125.914 30.8286 120.308 30.8962 116.328 33.1282Z"
        fill="url(#paint7_linear_7978_19595)" />
    <path
        d="M125.86 47.2377V51.0457C125.86 51.0457 127.122 51.7288 127.21 51.952C127.29 52.182 127.439 55.9832 127.439 55.9832L128.262 55.8412C128.262 55.8412 129.065 53.1357 129.415 52.3917C129.766 51.6476 131.331 50.119 131.844 50.349C132.357 50.579 133.53 52.581 133.618 53.0342C133.699 53.4874 132.33 55.5774 131.932 56.4229C131.534 57.2683 129.712 58.1814 129.712 58.1814L129.348 59.4057C129.348 59.4057 133.159 56.6867 134.59 53.555C136.404 49.5847 136.647 44.8501 136.647 42.7871L125.86 47.2377Z"
        fill="#2C2714" />
    <path
        d="M114.244 44.6606C112.409 43.5852 110.331 42.2865 110.183 42.2662C108.86 42.0633 107.956 41.8739 107.956 41.8739L108.658 41.6034C108.658 41.6034 107.316 41.3531 106.621 40.8188C107.693 39.8042 109.285 38.3838 109.285 38.3838C108.719 38.5935 107.896 38.7761 107.896 38.7761C107.896 38.7761 108.456 38.2621 108.779 38.0524C107.936 37.951 106.304 36.7064 106.304 36.7064C109.083 36.0436 111.107 34.9073 111.107 34.9073L109.764 35.029C109.764 35.029 111.289 33.8521 113.286 33.5613C111.943 32.8578 111.37 31.2481 111.37 31.2481C111.37 31.2481 114.52 31.2075 117.569 30.8152C120.619 30.4229 124.362 29.6451 130.016 32.2626C135.412 34.7652 136.971 41.3937 136.613 42.8276C131.533 46.3245 128.127 47.0415 127.412 47.2376C126.697 47.4338 125.847 47.2376 125.847 47.2376C125.847 47.2376 125.185 44.7553 124.639 44.8432C124.099 44.9176 116.726 45.1408 114.244 44.6606Z"
        fill="#2C2714" />
    <path
        d="M102.66 87.8472L101.041 76.4435C101.008 75.997 100.69 75.4627 100.34 75.253L83.8662 65.3847C83.7178 65.2968 83.5828 65.2832 83.4817 65.3306C83.4614 65.3441 83.4344 65.3509 83.4209 65.3712L82.6924 65.8379L83.4277 66.7239L84.9118 77.2145C84.9455 77.6609 85.2626 78.1953 85.6134 78.4049L100.535 87.3466L101.736 88.7941L102.498 88.3139C102.613 88.2395 102.674 88.0771 102.66 87.8472Z"
        fill="#19192B" />
    <path
        d="M101.851 88.3614C101.885 88.8078 101.628 88.9972 101.278 88.7875L84.8041 78.9192C84.4533 78.7095 84.1363 78.1752 84.1026 77.7288L82.4903 66.3318C82.4566 65.8854 82.7129 65.696 83.0637 65.9057L99.5372 75.7741C99.888 75.9837 100.205 76.5181 100.239 76.9645L101.851 88.3614Z"
        fill="#B46409" />
    <path opacity="0.2"
        d="M101.844 88.5571L94.5723 72.7975L86.9629 68.2388L94.5925 84.783L101.278 88.7871C101.575 88.963 101.797 88.8547 101.844 88.5571Z"
        fill="white" />
    <path opacity="0.2"
        d="M83.3945 72.6963L84.1096 77.7353C84.1433 78.1817 84.4604 78.716 84.8112 78.9257L86.8282 80.1297L83.3945 72.6963Z"
        fill="white" />
    <path
        d="M89.5804 75.449C89.6344 75.8954 89.4118 76.0983 89.0812 75.9022L87.7995 75.1514C87.4689 74.9552 87.1519 74.4412 87.0979 73.9948C87.0439 73.5484 87.2666 73.3455 87.5971 73.5416L88.8788 74.2924C89.2161 74.4818 89.5264 75.0026 89.5804 75.449Z"
        fill="#19192B" />
    <path
        d="M102.344 78.0195C102.344 78.0195 99.7126 75.0231 99.3754 74.8202C99.0381 74.6173 97.1964 74.57 96.7444 74.5902C96.2925 74.6105 95.0445 75.1922 94.606 75.2937C94.1675 75.3951 94.4373 76.2 95.5504 76.2406C96.6635 76.2812 97.1155 76.058 97.2841 76.058C97.4528 76.058 98.4377 76.5112 98.6468 76.6735C98.8559 76.8358 99.8206 78.4321 99.8206 78.4321L102.344 78.0195Z"
        fill="url(#paint8_linear_7978_19595)" />
    <path
        d="M108.866 85.4867C108.866 85.4867 102.296 77.9451 102.046 77.634C101.797 77.3229 100.562 76.8697 100.09 77.0794C99.6177 77.2891 97.4523 78.466 96.6698 79.0003C95.8872 79.5346 96.0491 80.0351 96.1975 80.2989C96.3392 80.5695 96.8587 81.7261 96.8587 81.7261C96.8587 81.7261 96.5686 82.4092 96.6968 82.6527C96.8182 82.903 97.5198 83.9514 97.5198 83.9514C97.5198 83.9514 97.169 84.7766 97.4388 85.2094C97.7086 85.6423 98.4507 86.4269 98.6531 86.7178C98.8554 87.0086 99.4761 86.4066 99.4761 86.4066C99.4761 86.4066 101.925 88.6995 102.755 89.2812C103.578 89.8629 106.155 90.4784 106.404 90.6475C106.654 90.8098 118.358 109.863 120.624 113.496C122.891 117.134 128.126 119.86 129.731 119.86C131.337 119.86 134.798 116.722 135.998 114.037C137.192 111.351 143.432 98.1688 143.432 98.1688H130.359L128.052 105.278L108.866 85.4867Z"
        fill="url(#paint9_linear_7978_19595)" />
    <path opacity="0.2"
        d="M137.011 111.791C139.17 107.144 143.413 98.1753 143.413 98.1753H130.339L128.478 103.911C129.51 105.602 132.154 109.221 137.011 111.791Z"
        fill="#F7DCD2" />
    <path
        d="M131.243 86.6029C131.243 86.6029 128.687 101.186 128.687 101.436C128.687 101.686 130.542 104.331 136.809 105.731C143.076 107.138 145.174 106.225 145.214 106.062C145.254 105.9 145.545 89.9916 145.214 86.0212C144.883 82.0509 143.474 77.5462 142.61 76.3558C141.747 75.1654 134.05 75.4427 131.243 86.6029Z"
        fill="#DB9721" />
    <path d="M96.8521 81.7259L98.8084 78.8716L96.3057 80.5287L96.8521 81.7259Z"
        fill="url(#paint10_linear_7978_19595)" />
    <path d="M97.5133 83.958L98.9772 81.1646L96.9736 83.126L97.5133 83.958Z"
        fill="url(#paint11_linear_7978_19595)" />
    <path
        d="M87.2061 70.566C87.2061 70.566 85.297 66.5754 85.1081 66.4334C84.9259 66.2913 82.6391 64.7627 82.349 64.5936C82.0589 64.4313 80.332 64.5936 80.0217 65.8111C79.7114 67.0286 79.6102 71.6144 79.7316 72.4802C79.853 73.3459 81.4451 74.9151 82.1601 75.2871C82.8819 75.6592 84.2379 75.7471 84.5279 75.7606C84.818 75.7809 85.189 75.5103 85.27 75.1789C85.3509 74.8475 85.7017 72.9672 85.7624 72.5343C85.8231 72.1014 83.8871 68.1311 83.8871 68.1311L84.6291 68.6248C84.9394 69.1389 85.5263 70.282 85.7827 70.6675C86.3021 71.4791 87.7187 71.5941 87.2061 70.566Z"
        fill="url(#paint12_linear_7978_19595)" />
    <path
        d="M174.212 48.4493C173.252 53.9172 168.034 57.5492 162.608 56.5479C157.182 55.5465 153.55 50.37 154.51 44.9437C155.512 39.4758 160.73 35.8852 166.115 36.8451C171.624 37.8049 175.214 43.0229 174.212 48.4493Z"
        fill="#FFB63C" />
    <path
        d="M172.331 48.6375C171.734 51.9426 168.588 54.1724 165.244 53.575C161.898 52.9381 159.708 49.7919 160.306 46.4472C160.903 43.1025 164.09 40.9122 167.394 41.5491C170.779 42.1465 172.929 45.3323 172.331 48.6375Z"
        fill="#FFDE9B" />
    <path
        d="M40.003 154.703C39.3126 158.636 35.5596 161.248 31.6566 160.528C27.7536 159.808 25.142 156.085 25.8324 152.182C26.5526 148.249 30.3057 145.666 34.1788 146.357C38.1414 147.047 40.7239 150.8 40.003 154.703Z"
        fill="#FFB63C" />
    <path
        d="M38.6505 154.838C38.2207 157.215 35.9578 158.819 33.5528 158.39C31.1464 157.931 29.571 155.669 30.0015 153.263C30.4305 150.857 32.7225 149.282 35.0991 149.74C37.5339 150.17 39.0802 152.461 38.6505 154.838Z"
        fill="#FFDE9B" />
    <defs>
        <filter id="filter0_f_7978_19595" x="55.7598" y="129.055" width="78.1318" height="73.7817"
            filterUnits="userSpaceOnUse" color-interpolation-filters="sRGB">
            <feFlood flood-opacity="0" result="BackgroundImageFix" />
            <feBlend mode="normal" in="SourceGraphic" in2="BackgroundImageFix" result="shape" />
            <feGaussianBlur stdDeviation="1" result="effect1_foregroundBlur_7978_19595" />
        </filter>
        <linearGradient id="paint0_linear_7978_19595" x1="53.4418" y1="194.756" x2="56.7255"
            y2="187.462" gradientUnits="userSpaceOnUse">
            <stop stop-color="#FFD6B5" />
            <stop offset="1" stop-color="#F7A58F" />
        </linearGradient>
        <linearGradient id="paint1_linear_7978_19595" x1="67.1643" y1="168.318" x2="103.895"
            y2="118.942" gradientUnits="userSpaceOnUse">
            <stop stop-color="#FFCB3B" />
            <stop offset="0.667646" stop-color="#E19115" />
        </linearGradient>
        <linearGradient id="paint2_linear_7978_19595" x1="73.3159" y1="208.97" x2="76.5996"
            y2="201.676" gradientUnits="userSpaceOnUse">
            <stop stop-color="#FFD6B5" />
            <stop offset="1" stop-color="#F7A58F" />
        </linearGradient>
        <linearGradient id="paint3_linear_7978_19595" x1="80.0806" y1="178.376" x2="115.588"
            y2="130.643" gradientUnits="userSpaceOnUse">
            <stop stop-color="#FECA3A" />
            <stop offset="1" stop-color="#F8A221" />
        </linearGradient>
        <linearGradient id="paint4_linear_7978_19595" x1="89.5499" y1="97.3734" x2="95.264"
            y2="81.1022" gradientUnits="userSpaceOnUse">
            <stop stop-color="#FFD6B5" />
            <stop offset="1" stop-color="#F7A58F" />
        </linearGradient>
        <linearGradient id="paint5_linear_7978_19595" x1="111.431" y1="134.539" x2="125.511"
            y2="89.9339" gradientUnits="userSpaceOnUse">
            <stop stop-color="#B36408" />
            <stop offset="1" stop-color="#EBAB2A" />
        </linearGradient>
        <linearGradient id="paint6_linear_7978_19595" x1="121.724" y1="70.1797" x2="122.221"
            y2="62.6041" gradientUnits="userSpaceOnUse">
            <stop stop-color="#FFD6B5" />
            <stop offset="1" stop-color="#F7A58F" />
        </linearGradient>
        <linearGradient id="paint7_linear_7978_19595" x1="110.769" y1="63.3392" x2="132.942"
            y2="31.2958" gradientUnits="userSpaceOnUse">
            <stop stop-color="#FFD6B5" />
            <stop offset="1" stop-color="#F7A58F" />
        </linearGradient>
        <linearGradient id="paint8_linear_7978_19595" x1="95.6374" y1="76.6825" x2="101.207"
            y2="76.3362" gradientUnits="userSpaceOnUse">
            <stop stop-color="#FFD6B5" />
            <stop offset="1" stop-color="#F7A58F" />
        </linearGradient>
        <linearGradient id="paint9_linear_7978_19595" x1="104.152" y1="99.1253" x2="137.205"
            y2="97.0701" gradientUnits="userSpaceOnUse">
            <stop stop-color="#FFD6B5" />
            <stop offset="1" stop-color="#F7A58F" />
        </linearGradient>
        <linearGradient id="paint10_linear_7978_19595" x1="96.6855" y1="80.37" x2="98.5494"
            y2="80.2541" gradientUnits="userSpaceOnUse">
            <stop stop-color="#FFD6B5" />
            <stop offset="1" stop-color="#F7A58F" />
        </linearGradient>
        <linearGradient id="paint11_linear_7978_19595" x1="97.2572" y1="82.6223" x2="98.777"
            y2="82.5279" gradientUnits="userSpaceOnUse">
            <stop stop-color="#FFD6B5" />
            <stop offset="1" stop-color="#F7A58F" />
        </linearGradient>
        <linearGradient id="paint12_linear_7978_19595" x1="82.5195" y1="65.9696" x2="84.2593"
            y2="75.8646" gradientUnits="userSpaceOnUse">
            <stop stop-color="#FFD6B5" />
            <stop offset="1" stop-color="#F7A58F" />
        </linearGradient>
    </defs>
</svg>