<svg xmlns="http://www.w3.org/2000/svg" width="226" height="253" viewBox="0 0 226 253" fill="none">
    <g filter="url(#filter0_d_7983_19827)">
        <path fill-rule="evenodd" clip-rule="evenodd"
            d="M97.8769 111.483L95.7221 109.764L98.3008 106.532C99.2506 105.341 99.0556 103.608 97.865 102.658L92.478 98.3602C90.098 96.4615 89.7078 92.9925 91.6066 90.6125C93.5053 88.2325 96.9743 87.8423 99.3543 89.7411L116.593 103.494C117.783 104.443 119.517 104.248 120.466 103.058C121.416 101.867 121.221 100.134 120.031 99.1841L114.644 94.8863C112.264 92.9876 111.873 89.5186 113.772 87.1386L117.21 82.8291L119.365 84.5481L115.927 88.8577C114.977 90.0483 115.172 91.7817 116.363 92.7316L121.75 97.0293C124.13 98.928 124.52 102.397 122.621 104.777C120.722 107.157 117.254 107.547 114.874 105.648L97.6352 91.8959C96.4447 90.9461 94.7112 91.141 93.7614 92.3316C92.8115 93.5222 93.0065 95.2556 94.1971 96.2054L99.5841 100.503C101.964 102.402 102.354 105.871 100.456 108.251L97.8769 111.483ZM76.4113 101.57C77.0556 101.981 77.6783 102.424 78.2751 102.901L78.275 102.901L91.2027 113.214L91.2031 113.214L91.4374 112.92C91.4374 112.92 91.4374 112.92 91.4374 112.92L94.6413 108.904L98.9508 112.343L95.5127 116.652L95.5127 116.652L95.5123 116.653L108.442 126.968C109.037 127.442 109.606 127.949 110.148 128.485C114.094 132.393 116.105 138.478 115.901 144.327L115.904 144.327C115.868 146.148 115.579 147.946 115.051 149.673C114.586 151.244 113.931 152.733 113.08 154.082L113.078 154.086C110.618 158.021 106.903 161.013 102.533 162.58C91.786 166.436 79.9481 160.85 76.0923 150.102C75.331 147.799 74.0208 145.715 72.2751 144.031C71.8702 143.657 71.448 143.296 71.0106 142.947C70.9112 142.867 70.8113 142.789 70.7109 142.712C70.3462 142.432 69.9758 142.167 69.5994 141.917C67.5927 140.618 65.3042 139.82 62.9246 139.59C58.3031 139.038 54.0035 136.944 50.7207 133.644C42.6677 125.55 42.6999 112.46 50.7943 104.407C57.0744 98.1083 68.9108 96.8015 76.4113 101.57Z"
            fill="#FFD68B" />
    </g>
    <g clip-path="url(#clip0_7983_19827)">
        <path
            d="M78.2753 102.9C77.6785 102.424 77.0558 101.98 76.4115 101.57C68.911 96.8014 57.0746 98.1082 50.7945 104.407C42.7001 112.46 42.6679 125.55 50.7209 133.644C54.0037 136.944 58.3033 139.038 62.9248 139.59C65.3044 139.82 67.5929 140.618 69.5996 141.917C70.0796 142.235 70.5497 142.578 71.0108 142.946C71.4483 143.295 71.8705 143.657 72.2753 144.031C74.0211 145.715 75.3313 147.798 76.0925 150.102C79.9484 160.849 91.7863 166.436 102.534 162.58C106.903 161.013 110.618 158.02 113.078 154.086C117.821 146.569 116.464 134.739 110.148 128.485C109.606 127.949 109.037 127.442 108.442 126.967L78.2752 102.901L78.2753 102.9Z"
            fill="url(#paint0_linear_7983_19827)" />
        <path
            d="M85.4285 140.344C87.2136 141.769 89.8152 141.476 91.2393 139.691C92.6635 137.906 92.3709 135.304 90.5858 133.88C88.8006 132.456 86.199 132.748 84.7749 134.534C83.3507 136.319 83.6433 138.92 85.4285 140.344Z"
            fill="#FFDC45" />
        <path
            d="M115.904 144.327C91.3423 148.514 57.8224 130.624 45.1344 123.13C46.8701 131.892 54.0559 138.536 62.9254 139.582C65.3051 139.813 67.5936 140.61 69.6002 141.91C70.0789 142.234 70.5503 142.58 71.0105 142.947C71.4479 143.296 71.8701 143.657 72.275 144.031C74.0207 145.715 75.3309 147.799 76.0921 150.102C79.948 160.85 91.7859 166.436 102.533 162.58C106.903 161.013 110.617 158.021 113.078 154.086C114.861 151.138 115.836 147.772 115.904 144.327Z"
            fill="url(#paint1_linear_7983_19827)" />
        <path
            d="M69.2454 109.8L73.555 113.238L69.2573 118.625L74.6442 122.923L71.206 127.233L65.8191 122.935L61.5214 128.322L57.2119 124.884L61.5096 119.497L56.1225 115.199L59.5607 110.889L64.9477 115.187L69.2454 109.8Z"
            fill="url(#paint2_linear_7983_19827)" />
        <path
            d="M98.1277 139.894C99.9128 141.318 102.514 141.026 103.939 139.241C105.363 137.455 105.07 134.854 103.285 133.43C101.5 132.006 98.8982 132.298 97.4741 134.083C96.0499 135.868 96.3426 138.47 98.1277 139.894Z"
            fill="#FFD68B" />
        <path
            d="M87.8132 152.823C89.5983 154.248 92.2 153.955 93.6241 152.17C95.0483 150.385 94.7556 147.783 92.9705 146.359C91.1854 144.935 88.5838 145.227 87.1596 147.013C85.7355 148.798 86.0281 151.399 87.8132 152.823Z"
            fill="#FFD68B" />
        <path
            d="M100.519 152.382C102.304 153.806 104.906 153.514 106.33 151.728C107.754 149.943 107.462 147.342 105.677 145.918C103.891 144.493 101.29 144.786 99.8657 146.571C98.4415 148.356 98.7342 150.958 100.519 152.382Z"
            fill="#FFDE46" />
        <path d="M91.2044 113.214L94.6426 108.904L98.9521 112.342L95.514 116.652" fill="#FFE7B2" />
        <path
            d="M97.8771 111.483L95.7224 109.764L98.301 106.532C99.2508 105.342 99.0559 103.608 97.8653 102.658L92.4783 98.3605C90.0983 96.4617 89.7081 92.9928 91.6068 90.6128C93.5056 88.2328 96.9745 87.8426 99.3545 89.7414L116.593 103.494C117.783 104.444 119.517 104.249 120.467 103.058C121.416 101.868 121.222 100.134 120.031 99.1843L114.644 94.8866C112.264 92.9879 111.874 89.5189 113.772 87.1389L117.211 82.8293L119.365 84.5484L115.927 88.858C114.977 90.0485 115.172 91.782 116.363 92.7318L121.75 97.0295C124.13 98.9283 124.52 102.397 122.621 104.777C120.723 107.157 117.254 107.547 114.874 105.649L97.6355 91.8961C96.4449 90.9463 94.7114 91.1413 93.7616 92.3319C92.8118 93.5224 93.0068 95.2559 94.1973 96.2057L99.5844 100.503C101.964 102.402 102.355 105.871 100.456 108.251L97.8771 111.483Z"
            fill="#FFE199" />
        <path
            d="M91.8752 135.696C91.7864 136.448 91.4898 137.16 91.02 137.753C89.5957 139.539 86.9944 139.831 85.2091 138.407C84.6193 137.933 84.1722 137.304 83.9182 136.591C83.6229 138.848 85.215 140.919 87.4725 141.214C89.73 141.509 91.8007 139.917 92.0959 137.66C92.1824 136.997 92.1066 136.323 91.8752 135.696Z"
            fill="#FAB134" />
        <path
            d="M104.575 135.248C104.487 136.001 104.19 136.713 103.72 137.306C102.296 139.091 99.6946 139.384 97.9093 137.96C97.3195 137.486 96.8724 136.857 96.6184 136.143C96.3231 138.401 97.9152 140.472 100.173 140.767C102.43 141.062 104.501 139.47 104.796 137.212C104.883 136.549 104.807 135.876 104.575 135.248Z"
            fill="#FFE199" />
        <path
            d="M106.96 147.729C106.871 148.482 106.575 149.194 106.105 149.787C104.681 151.572 102.079 151.865 100.294 150.441C99.7043 149.967 99.2571 149.338 99.0031 148.624C98.7079 150.882 100.3 152.952 102.557 153.248C104.815 153.543 106.886 151.951 107.181 149.693C107.267 149.031 107.192 148.356 106.96 147.729Z"
            fill="#FAB134" />
        <path
            d="M94.261 148.176C94.1721 148.928 93.8755 149.64 93.4058 150.233C91.9815 152.018 89.3802 152.311 87.5949 150.887C87.0051 150.413 86.5579 149.784 86.3039 149.071C86.0087 151.328 87.6007 153.399 89.8582 153.694C92.1158 153.989 94.1864 152.397 94.4817 150.14C94.5682 149.477 94.4925 148.803 94.261 148.176Z"
            fill="#FFE199" />
        <path
            d="M91.4374 112.92L91.2028 113.215L95.5123 116.653L98.3359 113.113C96.0809 113.834 93.6479 113.765 91.4374 112.92Z"
            fill="#FFD68B" />
    </g>
    <g filter="url(#filter1_d_7983_19827)">
        <path fill-rule="evenodd" clip-rule="evenodd"
            d="M159.13 142.671L169.733 133.339L136.658 113.315C135.132 112.364 133.211 112.309 131.633 113.173C131.512 113.241 131.394 113.315 131.281 113.395L131.281 113.395C129.88 114.266 129.004 115.778 128.946 117.427L126.849 165.171C126.762 166.82 127.502 168.403 128.823 169.394C128.928 169.483 129.038 169.566 129.153 169.644C130.653 170.629 132.564 170.743 134.171 169.943L168.874 152.897L168.875 152.898L178.809 148.014C180.485 147.198 181.572 145.522 181.635 143.66C181.736 141.799 180.799 140.035 179.202 139.075L169.734 133.338L159.13 142.671L159.13 142.671Z"
            fill="url(#paint3_linear_7983_19827)" />
    </g>
    <path
        d="M159.129 142.672L128.821 169.394C127.5 168.404 126.76 166.82 126.847 165.172L128.944 117.427C129.002 115.778 129.878 114.265 131.281 113.395L159.129 142.672Z"
        fill="url(#paint4_linear_7983_19827)" />
    <path
        d="M169.733 133.339L159.129 142.672L131.281 113.395C131.394 113.315 131.512 113.241 131.633 113.174C133.211 112.31 135.132 112.364 136.658 113.316L169.733 133.339Z"
        fill="url(#paint5_linear_7983_19827)" />
    <path
        d="M181.632 143.661C181.569 145.524 180.482 147.199 178.807 148.015L168.872 152.9L159.127 142.673L169.731 133.34L179.199 139.076C180.797 140.036 181.733 141.8 181.632 143.661Z"
        fill="url(#paint6_linear_7983_19827)" />
    <path
        d="M168.872 152.898L134.169 169.945C132.562 170.745 130.651 170.631 129.151 169.645C129.036 169.567 128.926 169.483 128.82 169.394L159.127 142.671L168.872 152.898Z"
        fill="url(#paint7_linear_7983_19827)" />
    <g filter="url(#filter2_d_7983_19827)">
        <path fill-rule="evenodd" clip-rule="evenodd"
            d="M172.839 34.708L172.384 34.6101C168.887 34.3261 164.904 35.5784 162.48 37.428C159.868 39.4105 157.474 42.1561 156.82 46.6624C161.285 47.9976 164.599 46.2546 167.172 44.2755C169.787 42.288 172.233 39.2921 172.839 34.708ZM176.001 84.5965L176.028 84.4702C172.039 81.4029 169.253 77.0565 170.078 70.8314C170.974 63.9758 175.076 60.7321 179.753 59.001C178.339 55.2087 175.354 52.3048 170.65 50.522C167.037 49.155 163.905 49.591 160.79 50.0247C160.531 50.0608 160.272 50.0969 160.013 50.1319C159.733 50.1707 159.451 50.2193 159.17 50.2678C158.296 50.4187 157.427 50.5687 156.619 50.4191C155.385 50.1922 154.222 49.3717 153.194 48.6459C152.91 48.4452 152.636 48.2518 152.373 48.0802C151.093 47.2523 149.617 46.3764 148.112 45.7996C144.599 44.4612 141.068 45.0008 138.38 45.9481C133.292 47.7226 128.688 52.6548 126.893 59.5544L126.277 62.4132C124.876 72.2924 126.977 80.7011 130.548 87.6298C131.76 89.9754 133.536 92.6716 136.241 93.6772L137.537 93.9565C139.21 94.0776 140.67 93.8481 142.117 93.6207C144.055 93.316 145.969 93.015 148.342 93.5667C150.29 94.0216 151.768 94.9962 153.233 95.9627C154.714 96.9391 156.181 97.9072 158.109 98.3226C162.33 99.2323 165.517 96.3633 168.081 94.055C168.213 93.9363 168.343 93.8191 168.472 93.704C171.357 91.1081 173.891 88.1873 176.001 84.5965Z"
            fill="url(#paint8_linear_7983_19827)" />
    </g>
    <path
        d="M172.385 34.6117C172.534 34.6437 172.683 34.6757 172.84 34.7096C172.233 39.2937 169.788 42.2896 167.173 44.2771C164.6 46.2562 161.286 47.9992 156.821 46.664C157.475 42.1577 159.869 39.4121 162.481 37.4296C164.905 35.58 168.888 34.3277 172.385 34.6117Z"
        fill="url(#paint9_linear_7983_19827)" />
    <path
        d="M176.028 84.4708C176.018 84.5156 176.01 84.5549 176.001 84.597C173.891 88.1878 171.356 91.1086 168.472 93.7045C165.842 96.0588 162.546 99.2796 158.108 98.3231C154.273 97.4966 152.257 94.4816 148.341 93.5672C144.198 92.6038 141.453 94.2404 137.536 93.957C137.101 93.8633 136.666 93.7696 136.24 93.6777C133.536 92.6721 131.759 89.9759 130.547 87.6303C126.977 80.7016 124.875 72.2929 126.276 62.4137C126.482 61.4598 126.687 60.5088 126.893 59.555C128.688 52.6553 133.291 47.7231 138.38 45.9486C141.067 45.0013 144.598 44.4617 148.111 45.8001C149.616 46.3769 151.092 47.2528 152.373 48.0807C153.585 48.8733 155.043 50.1299 156.619 50.4196C157.686 50.6173 158.86 50.292 160.013 50.1324C163.387 49.6765 166.736 49.0419 170.65 50.5225C175.353 52.3053 178.339 55.2092 179.752 59.0015C175.075 60.7326 170.974 63.9763 170.078 70.8319C169.253 77.057 172.039 81.4034 176.028 84.4708Z"
        fill="url(#paint10_linear_7983_19827)" />
    <g filter="url(#filter3_d_7983_19827)">
        <path
            d="M70.447 67.1209C69.2316 66.878 68.4433 65.6959 68.6861 64.4805L70.9565 53.1191C71.1993 51.9037 72.3815 51.1153 73.5968 51.3582C74.8122 51.6011 75.6006 52.7832 75.3577 53.9986L73.0874 65.36C72.8445 66.5754 71.6624 67.3637 70.447 67.1209ZM65.5841 60.1174C64.4347 59.8877 63.6891 58.7697 63.9188 57.6203C64.1485 56.4709 65.2665 55.7253 66.4159 55.955L78.4938 58.3685C79.6432 58.5982 80.3888 59.7162 80.1591 60.8656C79.9295 62.015 78.8115 62.7606 77.662 62.5309L65.5841 60.1174Z"
            fill="white" />
        <path
            d="M91.0046 71.2289C89.7893 70.986 89.0009 69.8039 89.2437 68.5885L91.5141 57.2271C91.7569 56.0117 92.9391 55.2233 94.1545 55.4662C95.3698 55.7091 96.1582 56.8912 95.9153 58.1066L93.645 69.468C93.4021 70.6834 92.22 71.4717 91.0046 71.2289ZM86.1418 64.2254C84.9923 63.9957 84.2468 62.8777 84.4764 61.7283C84.7061 60.5789 85.8241 59.8333 86.9735 60.063L99.0514 62.4765C100.201 62.7062 100.946 63.8242 100.717 64.9736C100.487 66.123 99.3691 66.8686 98.2197 66.6389L86.1418 64.2254Z"
            fill="white" />
    </g>
    <path
        d="M203.619 116.076C202.714 121.227 197.798 124.649 192.686 123.706C187.574 122.762 184.153 117.885 185.057 112.773C186 107.622 190.917 104.239 195.99 105.143C201.18 106.048 204.563 110.964 203.619 116.076Z"
        fill="#FFB63C" />
    <path
        d="M201.844 116.255C201.281 119.368 198.317 121.469 195.166 120.906C192.014 120.306 189.951 117.342 190.515 114.191C191.077 111.04 194.079 108.976 197.192 109.576C200.381 110.139 202.407 113.141 201.844 116.255Z"
        fill="#FFDE9B" />
    <defs>
        <filter id="filter0_d_7983_19827" x="29.9653" y="68.0923" width="108.597" height="110.445"
            filterUnits="userSpaceOnUse" color-interpolation-filters="sRGB">
            <feFlood flood-opacity="0" result="BackgroundImageFix" />
            <feColorMatrix in="SourceAlpha" type="matrix"
                values="0 0 0 0 0 0 0 0 0 0 0 0 0 0 0 0 0 0 127 0" result="hardAlpha" />
            <feOffset />
            <feGaussianBlur stdDeviation="7.3684" />
            <feComposite in2="hardAlpha" operator="out" />
            <feColorMatrix type="matrix"
                values="0 0 0 0 0.7375 0 0 0 0 0.499231 0 0 0 0 0 0 0 0 0.56 0" />
            <feBlend mode="normal" in2="BackgroundImageFix" result="effect1_dropShadow_7983_19827" />
            <feBlend mode="normal" in="SourceGraphic" in2="effect1_dropShadow_7983_19827"
                result="shape" />
        </filter>
        <filter id="filter1_d_7983_19827" x="119.066" y="106.448" width="70.3519" height="73.4618"
            filterUnits="userSpaceOnUse" color-interpolation-filters="sRGB">
            <feFlood flood-opacity="0" result="BackgroundImageFix" />
            <feColorMatrix in="SourceAlpha" type="matrix"
                values="0 0 0 0 0 0 0 0 0 0 0 0 0 0 0 0 0 0 127 0" result="hardAlpha" />
            <feOffset dy="1.66221" />
            <feGaussianBlur stdDeviation="3.88779" />
            <feComposite in2="hardAlpha" operator="out" />
            <feColorMatrix type="matrix"
                values="0 0 0 0 0.972549 0 0 0 0 0.666667 0 0 0 0 0.192157 0 0 0 1 0" />
            <feBlend mode="normal" in2="BackgroundImageFix" result="effect1_dropShadow_7983_19827" />
            <feBlend mode="normal" in="SourceGraphic" in2="effect1_dropShadow_7983_19827"
                result="shape" />
        </filter>
        <filter id="filter2_d_7983_19827" x="113.241" y="21.9717" width="79.1102" height="89.1214"
            filterUnits="userSpaceOnUse" color-interpolation-filters="sRGB">
            <feFlood flood-opacity="0" result="BackgroundImageFix" />
            <feColorMatrix in="SourceAlpha" type="matrix"
                values="0 0 0 0 0 0 0 0 0 0 0 0 0 0 0 0 0 0 127 0" result="hardAlpha" />
            <feOffset />
            <feGaussianBlur stdDeviation="6.29904" />
            <feComposite in2="hardAlpha" operator="out" />
            <feColorMatrix type="matrix"
                values="0 0 0 0 0.695833 0 0 0 0 0.501505 0 0 0 0 0.0260937 0 0 0 1 0" />
            <feBlend mode="normal" in2="BackgroundImageFix" result="effect1_dropShadow_7983_19827" />
            <feBlend mode="normal" in="SourceGraphic" in2="effect1_dropShadow_7983_19827"
                result="shape" />
        </filter>
        <filter id="filter3_d_7983_19827" x="62.7346" y="50.1721" width="39.1666" height="22.2433"
            filterUnits="userSpaceOnUse" color-interpolation-filters="sRGB">
            <feFlood flood-opacity="0" result="BackgroundImageFix" />
            <feColorMatrix in="SourceAlpha" type="matrix"
                values="0 0 0 0 0 0 0 0 0 0 0 0 0 0 0 0 0 0 127 0" result="hardAlpha" />
            <feOffset />
            <feGaussianBlur stdDeviation="0.571194" />
            <feComposite in2="hardAlpha" operator="out" />
            <feColorMatrix type="matrix"
                values="0 0 0 0 0.984314 0 0 0 0 0.721569 0 0 0 0 0.215686 0 0 0 1 0" />
            <feBlend mode="normal" in2="BackgroundImageFix" result="effect1_dropShadow_7983_19827" />
            <feBlend mode="normal" in="SourceGraphic" in2="effect1_dropShadow_7983_19827"
                result="shape" />
        </filter>
        <linearGradient id="paint0_linear_7983_19827" x1="107.565" y1="120.367" x2="56.9792"
            y2="129.923" gradientUnits="userSpaceOnUse">
            <stop offset="0.0149926" stop-color="#FFE3AD" />
            <stop offset="1" stop-color="#FFFFFB" />
        </linearGradient>
        <linearGradient id="paint1_linear_7983_19827" x1="90.6829" y1="124.206" x2="70.4564"
            y2="149.559" gradientUnits="userSpaceOnUse">
            <stop stop-color="#FFF7E5" />
            <stop offset="1" stop-color="#FFE4AE" />
        </linearGradient>
        <linearGradient id="paint2_linear_7983_19827" x1="71.243" y1="109.929" x2="59.3666"
            y2="126.603" gradientUnits="userSpaceOnUse">
            <stop stop-color="#FFE6B3" />
            <stop offset="1" stop-color="#FFD68B" />
        </linearGradient>
        <linearGradient id="paint3_linear_7983_19827" x1="149.677" y1="142.255" x2="83.3656"
            y2="112.672" gradientUnits="userSpaceOnUse">
            <stop stop-color="#FFD27C" />
            <stop offset="1" stop-color="#FFECC9" />
        </linearGradient>
        <linearGradient id="paint4_linear_7983_19827" x1="151.922" y1="141.822" x2="124.421"
            y2="150.326" gradientUnits="userSpaceOnUse">
            <stop stop-color="#FFDB95" />
            <stop offset="0.758774" stop-color="#FFF1D6" />
        </linearGradient>
        <linearGradient id="paint5_linear_7983_19827" x1="150.319" y1="119.58" x2="153.899"
            y2="139.726" gradientUnits="userSpaceOnUse">
            <stop stop-color="white" />
            <stop offset="0.675" stop-color="#FFE5AF" />
        </linearGradient>
        <linearGradient id="paint6_linear_7983_19827" x1="170.809" y1="133.387" x2="169.95"
            y2="152.947" gradientUnits="userSpaceOnUse">
            <stop stop-color="#FFC961" />
            <stop offset="1" stop-color="#FFF5DE" />
        </linearGradient>
        <linearGradient id="paint7_linear_7983_19827" x1="149.676" y1="142.256" x2="83.3634"
            y2="112.671" gradientUnits="userSpaceOnUse">
            <stop stop-color="#FFD27C" />
            <stop offset="1" stop-color="#FFECC9" />
        </linearGradient>
        <linearGradient id="paint8_linear_7983_19827" x1="156.772" y1="47.3679" x2="146.323"
            y2="95.8501" gradientUnits="userSpaceOnUse">
            <stop stop-color="#FFFFFB" />
            <stop offset="1" stop-color="#FFEDC9" />
        </linearGradient>
        <linearGradient id="paint9_linear_7983_19827" x1="166.424" y1="33.3269" x2="163.243"
            y2="48.0858" gradientUnits="userSpaceOnUse">
            <stop stop-color="#FFFFFB" />
            <stop offset="1" stop-color="#FFEDC9" />
        </linearGradient>
        <linearGradient id="paint10_linear_7983_19827" x1="156.771" y1="47.3685" x2="146.323"
            y2="95.8506" gradientUnits="userSpaceOnUse">
            <stop stop-color="#FFFFFB" />
            <stop offset="1" stop-color="#FFEDC9" />
        </linearGradient>
        <clipPath id="clip0_7983_19827">
            <rect width="81.3216" height="81.3216" fill="white"
                transform="translate(86.4971 58.3281) rotate(38.5825)" />
        </clipPath>
    </defs>
</svg>