<svg xmlns="http://www.w3.org/2000/svg" width="114" height="220" viewBox="0 0 114 220" fill="none">
    <path
        d="M112.924 169.764L113.027 168.266C114.004 172.993 111.749 178.599 107.988 180.771L109.214 178.967C111.981 177.371 113.643 173.236 112.924 169.764Z"
        fill="#FFE199" />
    <path d="M109.213 178.966L107.987 180.77L42.7539 218.432L43.9796 216.628L109.213 178.966Z"
        fill="#FFE199" />
    <path
        d="M43.9865 216.629L42.7609 218.433C39.0034 220.602 35.159 218.517 34.1826 213.791L37.6741 213.213C38.3895 216.687 41.2257 218.225 43.9865 216.629Z"
        fill="#FFE199" />
    <path d="M79.4854 7.95744L79.589 6.45996L113.032 168.267L112.928 169.764L79.4854 7.95744Z"
        fill="#FFE199" />
    <path
        d="M73.1634 4.53258L71.002 1.80943C74.763 -0.362133 78.6075 1.72245 79.5867 6.45988L79.4831 7.95736C78.7633 4.47097 75.9286 2.93435 73.1634 4.53258Z"
        fill="#FFE199" />
    <path d="M7.92801 42.1947L5.7666 39.4708L70.9997 1.80908L73.1612 4.53223L7.92801 42.1947Z"
        fill="#FFE199" />
    <path d="M37.6735 213.212L34.1827 213.791L0.740234 51.9839L4.2317 51.4062L37.6735 213.212Z"
        fill="#FFE199" />
    <path
        d="M73.1652 4.53206C75.9304 2.9331 78.7651 4.47045 79.4842 7.95611L112.927 169.763C113.646 173.236 111.984 177.371 109.217 178.966L43.9846 216.628C41.2231 218.225 38.3876 216.687 37.6714 213.212L4.22893 51.4055C3.50773 47.9213 5.17047 43.7869 7.93203 42.1945L73.1652 4.53206Z"
        fill="white" />
    <path
        d="M4.22708 51.4066L0.73561 51.9843C-0.243623 47.2476 2.0113 41.6411 5.76877 39.4717L7.93018 42.1956C5.16862 43.7873 3.50515 47.9216 4.22708 51.4066Z"
        fill="#FFE199" />
    <path
        d="M31.1012 115.694C32.5428 114.799 33.9425 114.688 35.0616 115.288C36.201 115.874 37.0505 117.119 37.3629 118.896L43.0027 150.965C43.6188 154.466 41.8329 158.784 38.9901 160.551C36.1677 162.304 33.3655 160.838 32.7494 157.336L27.1096 125.267C26.4848 121.716 28.2787 117.448 31.1012 115.694Z"
        fill="#FFE199" />
    <path
        d="M33.3099 43.8505C43.5429 37.4917 53.6477 42.6951 55.8874 55.4317C58.1365 68.219 51.6769 83.7432 41.4446 90.1021C31.2318 96.4486 21.1228 91.219 18.8744 78.4324C16.634 65.6952 23.0972 50.1963 33.3099 43.8505ZM49.3422 73.7958C50.3983 73.1398 51.0253 71.4553 50.6143 70.2753C48.4848 64.0563 42.8232 61.8326 37.0978 65.3907C31.3928 68.9358 27.5519 77.064 27.8136 84.4441C27.8585 85.8517 28.9168 86.4888 29.9721 85.8329L49.3422 73.7958ZM34.6646 51.4234C32.106 53.013 30.5107 56.8755 31.068 60.0474C31.6254 63.2192 34.1319 64.5318 36.6905 62.9423C39.2281 61.3651 40.8444 57.4909 40.2863 54.3191C39.7282 51.1473 37.2022 49.8462 34.6646 51.4234Z"
        fill="url(#paint0_linear_7974_4344)" />
    <path
        d="M63.1129 78.3536C64.5342 77.4701 65.9338 77.3606 67.0733 77.947C68.2127 78.5334 69.0622 79.7786 69.3746 81.5551L77.781 129.354C78.3971 132.855 76.6112 137.174 73.7684 138.94C70.946 140.693 68.1438 139.227 67.5277 135.725L59.1213 87.9263C58.4965 84.374 60.2911 80.107 63.1129 78.3536Z"
        fill="#FFE199" />
    <path
        d="M50.6422 117.057C52.0629 116.174 53.4676 116.09 54.6019 116.651C55.7211 117.251 56.5952 118.508 56.9032 120.26L60.4012 140.15C61.0173 143.651 59.2111 147.982 56.3894 149.735C53.5466 151.501 50.764 150.022 50.1479 146.521L46.6499 126.631C46.0302 123.104 47.8002 118.824 50.6422 117.057Z"
        fill="#FFE199" />
    <path
        d="M83.262 83.2816C84.7037 82.3857 86.083 82.2886 87.2224 82.875C88.3611 83.4621 89.2113 84.7066 89.5237 86.4832L95.1636 118.552C95.7797 122.053 93.9937 126.371 91.151 128.138C88.3285 129.891 85.5256 128.425 84.9095 124.924L79.2697 92.8551C78.6449 89.3027 80.4396 85.0357 83.262 83.2816Z"
        fill="#FFE199" />
    <path
        d="M94.4487 139.203C96.621 137.854 98.7708 138.938 99.2485 141.652L101.926 156.875C102.404 159.59 101.021 162.869 98.8484 164.219L79.0521 176.521C76.8798 177.87 74.73 176.786 74.2523 174.071L71.5748 158.849C71.0972 156.134 72.4801 152.855 74.6524 151.505L94.4487 139.203Z"
        fill="#FFE199" />
    <path
        d="M59.664 160.815C61.8566 159.452 63.9666 160.562 64.4442 163.276L67.1217 178.499C67.5994 181.213 66.257 184.468 64.0644 185.831L44.2884 198.119C42.1161 199.469 39.9663 198.384 39.4887 195.67L36.8112 180.447C36.3335 177.733 37.7165 174.453 39.8888 173.103L59.664 160.815Z"
        fill="#FFE199" />
    <path
        d="M37.0996 65.3934C42.825 61.836 48.4866 64.059 50.6161 70.278C51.0263 71.4587 50.3994 73.1425 49.344 73.7984L29.9739 85.8348C28.9186 86.4908 27.8603 85.8536 27.8154 84.446C27.553 77.0666 31.3938 68.9385 37.0996 65.3934Z"
        fill="white" />
    <path
        d="M34.6646 51.4235C37.2022 49.8463 39.7289 51.1473 40.2863 54.3192C40.8444 57.4903 39.228 61.3651 36.6904 62.9424C34.1318 64.5319 31.6261 63.2192 31.068 60.0474C30.5106 56.8756 32.1059 53.0138 34.6646 51.4235Z"
        fill="white" />
    <defs>
        <linearGradient id="paint0_linear_7974_4344" x1="18.4307" y1="41.1372" x2="54.3482"
            y2="82.5638" gradientUnits="userSpaceOnUse">
            <stop offset="0.170844" stop-color="#FFE753" />
            <stop offset="0.82116" stop-color="#FEC538" />
        </linearGradient>
    </defs>
</svg>