<svg xmlns="http://www.w3.org/2000/svg" width="168" height="196" viewBox="0 0 168 196" fill="none">
    <g clip-path="url(#clip0_7978_19516)">
        <path
            d="M81.74 21.1498C80.7011 20.5411 78.8527 21.4745 77.3889 22.32C73.8473 24.3694 70.1505 26.5135 67.8704 27.8325C66.103 28.8538 61.8733 32.0395 58.7769 40.731C55.694 49.3953 51.1675 73.6367 50.9314 74.9083C50.7695 75.5847 47.7473 88.517 37.0483 94.8411C35.9083 95.5175 34.7682 96.1803 33.6889 96.8026C31.5302 98.0539 29.6009 99.1496 28.3326 99.8869C23.5565 102.653 11.1373 111.453 4.64102 128.464C3.35255 131.846 1.55139 138.826 0.175229 144.535C-0.377935 146.827 0.391098 148.187 1.56489 148.87L71.7965 189.845C70.6295 189.162 69.8537 187.802 70.4068 185.509C71.783 179.801 73.5842 172.821 74.8726 169.439C81.3689 152.435 93.7881 143.628 98.5642 140.862C99.8325 140.125 101.762 139.029 103.921 137.778C105 137.155 106.14 136.492 107.28 135.816C117.972 129.492 121.001 116.56 121.163 115.876C121.399 114.605 125.926 90.3635 129.009 81.6991C132.105 73.0077 136.335 69.8219 138.102 68.8006C140.382 67.4817 144.079 65.3376 147.62 63.2881C149.078 62.4427 150.926 61.5093 151.972 62.118C125.305 46.5884 108.413 36.693 81.74 21.1498Z"
            fill="url(#paint0_linear_7978_19516)" />
        <path
            d="M147.627 63.2948C149.779 62.0502 152.775 60.6163 152.781 64.1944C152.815 77.0793 152.909 109.958 152.943 122.038C152.957 127.862 146.393 149.154 130.041 158.623C111.402 169.418 88.3579 182.756 75.932 189.946C74.0364 191.042 69.2333 190.386 70.4138 185.516C71.79 179.807 73.5911 172.827 74.8796 169.445C81.3759 152.441 93.7951 143.635 98.5712 140.868C99.8395 140.131 101.769 139.035 103.927 137.784C105.007 137.162 106.147 136.499 107.287 135.823C117.979 129.499 121.008 116.566 121.17 115.883C121.406 114.611 125.933 90.3701 129.015 81.7058C132.112 73.0143 136.342 69.8286 138.109 68.8073C140.389 67.4883 144.086 65.3442 147.627 63.2948Z"
            fill="#D0C6AC" />
        <path opacity="0.2"
            d="M70.9671 185.793C72.3433 180.085 74.1444 173.105 75.4329 169.723C81.9292 152.719 94.3484 143.912 99.1245 141.146C100.393 140.409 102.322 139.313 104.481 138.062C105.56 137.439 106.7 136.776 107.84 136.1C118.533 129.776 121.561 116.844 121.717 116.167C121.953 114.889 126.479 90.6543 129.562 81.9899C132.658 73.2984 136.888 70.1127 138.656 69.0914C140.936 67.7724 144.632 65.6283 148.174 63.5789C149.469 62.8281 151.075 62.0165 152.147 62.2667C151.149 61.4213 149.172 62.4088 147.628 63.3016C144.086 65.351 140.389 67.4951 138.109 68.8141C136.342 69.8354 132.112 73.0211 129.016 81.7126C125.933 90.377 121.406 114.618 121.17 115.89C121.008 116.573 117.986 129.499 107.287 135.829C106.147 136.506 105.007 137.169 103.928 137.791C101.769 139.042 99.8396 140.138 98.5714 140.875C93.7953 143.642 81.3761 152.441 74.8798 169.452C73.5913 172.834 71.7901 179.814 70.414 185.523C69.7866 188.12 70.8659 189.514 72.2893 190.088C71.1628 189.385 70.4207 188.046 70.9671 185.793Z"
            fill="white" />
        <path
            d="M141.098 157.649C146.663 161.01 146.474 166.36 140.673 169.607C134.871 172.854 125.65 172.759 120.084 169.397C114.519 166.036 114.708 160.686 120.509 157.439C126.311 154.192 135.526 154.287 141.098 157.649Z"
            fill="#8A550D" />
        <path
            d="M141.92 153.678C135.91 150.053 125.966 149.952 119.699 153.455C115.692 155.694 114.161 158.866 115.159 161.815C115.537 162.938 115.922 164.068 116.299 165.19C115.375 162.465 116.792 159.522 120.509 157.446C126.31 154.199 135.532 154.294 141.097 157.656C144.497 159.705 145.752 162.505 144.888 165.109C145.259 163.98 145.637 162.857 146.008 161.727C146.939 158.907 145.59 155.89 141.92 153.678Z"
            fill="#D0C6AC" />
        <path
            d="M143.782 152.637C150.778 156.857 150.535 163.587 143.243 167.659C135.95 171.738 124.368 171.616 117.372 167.395C110.377 163.175 110.62 156.445 117.905 152.373C125.204 148.295 136.787 148.416 143.782 152.637ZM141.921 153.678C135.91 150.053 125.966 149.952 119.7 153.455C113.439 156.959 113.23 162.735 119.241 166.361C125.251 169.986 135.195 170.087 141.462 166.584C147.722 163.08 147.924 157.304 141.921 153.678Z"
            fill="#FFF8E6" />
        <path
            d="M117.041 186.334C115.49 177.954 113.938 169.573 112.387 161.193C112.805 163.446 114.464 165.637 117.372 167.396C124.367 171.616 135.95 171.738 143.242 167.659C146.494 165.847 148.342 163.5 148.774 161.085C147.27 169.472 145.765 177.859 144.261 186.253C143.937 188.059 142.554 189.811 140.126 191.17C134.668 194.221 126.007 194.133 120.779 190.974C118.6 189.655 117.358 188.018 117.041 186.334Z"
            fill="#F4E8CB" />
        <path
            d="M131.269 157.743C130.817 151.893 136.322 122.389 117.845 106.285C119.093 121.571 116.644 140.753 131.269 157.743Z"
            fill="#ECAC2B" />
        <path
            d="M127.7 147.55C128.577 154.909 129.603 155.322 132.449 163.249L134.264 162.153C134.264 162.153 134.885 136.613 139.06 120.245C139.054 120.245 129.333 129.356 127.7 147.55Z"
            fill="#C27711" />
        <path
            d="M127.701 147.55C130.466 138.785 141.118 130.33 145.017 119.488C148.917 108.645 150.353 95.7806 147.122 88.3945C145.638 99.1286 124.719 116.349 127.701 147.55Z"
            fill="#ECAC2B" />
        <path
            d="M131.323 163.574C130.871 157.717 127.417 134.469 108.596 126.069C109.837 141.355 112.724 160.07 131.323 163.574Z"
            fill="#ECAC2B" />
        <path
            d="M122.56 154.578C124.928 156.019 128.996 162.85 132.2 164.291C126.466 164.73 121.137 162.356 118.897 161.132C116.657 159.908 110.775 155.958 105.54 155.065C107.908 153.712 115.956 151.013 122.56 154.578Z"
            fill="#C27711" />
        <path
            d="M122.729 154.598C117.743 154.057 114.29 154.267 108.61 157.229C102.929 160.185 94.1868 163.885 86.0107 160.55C89.8829 158.555 94.5713 152.238 101.122 150.763C108.643 149.059 115.355 149.782 122.729 154.598Z"
            fill="#EAAA2A" />
        <path
            d="M136.417 141.517C133.752 150.445 132.355 164.352 132.355 164.352L134.042 162.857C134.042 162.857 144.512 135.626 151.925 123.37C151.925 123.37 140.646 129.004 136.417 141.517Z"
            fill="#C27711" />
        <path
            d="M136.416 141.517C140.126 134.53 157.666 131.521 163.791 107.455C156.006 111.953 141.698 119.684 136.416 141.517Z"
            fill="#ECAC2B" />
        <path
            d="M138.467 152.055C136.747 153.814 134.737 160.591 132.288 162.532C137.321 161.653 141.382 158.44 143.048 156.891C144.707 155.349 148.91 150.655 153.221 148.734C150.88 148.098 143.372 147.544 138.467 152.055Z"
            fill="#C27711" />
        <path
            d="M138.319 152.109C142.495 150.554 145.51 149.972 151.049 151.271C156.581 152.569 164.918 153.834 171.226 149.167C167.462 148.301 162.038 143.891 156.081 144.06C149.234 144.25 143.615 146.347 138.319 152.109Z"
            fill="#ECAC2B" />
        <path
            d="M129.637 155.126C128.638 157.676 128.517 162.952 132.335 165.015L133.9 165.001C133.9 165.001 137.091 154.855 143.918 149.911C139.101 149.512 133.118 151.345 129.637 155.126Z"
            fill="#C27711" />
        <path
            d="M163.926 166.658C161.531 158.183 154.61 150.98 149.47 148.991C144.336 147.002 135.64 147.036 129.63 155.126C136.787 152.468 143.655 155.133 146.96 157.27C150.987 159.867 155.521 164.23 163.926 166.658Z"
            fill="#ECAC2B" />
    </g>
    <defs>
        <linearGradient id="paint0_linear_7978_19516" x1="51.5427" y1="129.609" x2="118.344"
            y2="52.0999" gradientUnits="userSpaceOnUse">
            <stop stop-color="#F4E8CB" />
            <stop offset="1" stop-color="white" />
        </linearGradient>
        <clipPath id="clip0_7978_19516">
            <rect width="168" height="195" fill="white" transform="translate(0 0.647949)" />
        </clipPath>
    </defs>
</svg>