<svg xmlns="http://www.w3.org/2000/svg" width="86" height="160" viewBox="0 0 86 160" fill="none">
    <g clip-path="url(#clip0_7974_4404)">
        <path fill-rule="evenodd" clip-rule="evenodd"
            d="M60.4464 13.7951C60.7169 13.3667 61.01 12.9383 61.2806 12.5099C62.4079 10.864 63.648 9.51125 64.6851 7.75261C65.4968 6.44491 65.3615 6.17435 65.1586 4.73137C64.9331 3.1531 64.7077 2.90509 63.7833 1.82285C62.9716 0.875897 61.7992 0.312232 61.1904 0.244592C59.2514 0.0642196 60.4915 3.80696 60.4915 4.19025C59.6121 5.27248 58.8005 5.83615 58.6201 7.14385C58.3946 8.76721 58.4848 9.57888 58.1692 10.368C57.9211 10.8189 57.4702 11.4052 56.9291 12.059L60.4464 13.7951Z"
            fill="#FFDFAF" />
        <path fill-rule="evenodd" clip-rule="evenodd"
            d="M54.5382 22.9712C56.3644 19.6569 58.7093 18.6648 60.2875 15.0574C60.4228 14.7643 60.4905 14.0202 60.6708 13.7497C60.9188 13.3438 61.1894 12.938 61.46 12.5547C59.8817 12.442 58.0103 10.6382 58.0554 10.3677C57.8751 10.7059 57.5819 11.0892 57.2437 11.5401C56.9506 11.9008 56.1841 11.991 55.7782 12.3743C52.9824 14.9897 48.9466 18.8227 48.3378 20.7842C47.7516 22.6105 46.8272 41.5271 51.0434 42.7446C54.2225 43.669 56.2066 42.4289 56.9281 40.6703C58.326 37.2658 54.2225 24.9779 54.5382 22.9712Z"
            fill="#B66509" />
        <path opacity="0.35" fill-rule="evenodd" clip-rule="evenodd"
            d="M47.8429 31.2233C47.8429 32.283 47.9331 33.6133 48.0458 34.6955C48.4516 38.7539 49.5113 42.2937 51.0445 42.7446C54.2236 43.6691 56.2077 42.429 56.9291 40.6704C57.2899 39.7685 57.2899 38.2804 57.087 36.5218C55.4411 34.5828 50.9092 30.1636 47.8429 31.2233Z"
            fill="#B56393" />
        <path fill-rule="evenodd" clip-rule="evenodd"
            d="M62.6116 142.671C63.6939 140.259 64.3026 138.996 67.121 138.59C67.865 138.613 68.5865 139.019 69.308 139.56C72.1714 140.056 72.2165 142.852 71.6077 145.422C71.0441 147.812 70.4579 148.037 70.4128 149.3C70.3902 149.706 70.5255 150.157 70.7284 150.946C71.247 152.93 70.0971 155.297 69.308 156.515C68.0679 158.386 65.0467 159.739 62.8146 159.514C61.9803 159.423 61.9127 157.71 62.0705 156.515C62.3636 154.08 62.7469 153.02 62.8822 151.645C63.0626 149.841 62.8146 148.24 62.5891 146.504C62.4764 145.625 62.2509 143.46 62.6116 142.671Z"
            fill="#B46409" />
        <path fill-rule="evenodd" clip-rule="evenodd"
            d="M68.6774 139.447C72.0368 139.627 72.2623 142.671 71.631 145.422C71.0899 147.812 70.4811 148.037 70.436 149.3C70.4135 149.705 70.5488 150.156 70.7517 150.946C71.2702 152.93 70.1204 155.297 69.3312 156.515C68.0912 158.386 65.0699 159.739 62.8378 159.513C62.6124 159.491 62.432 159.355 62.3192 159.13C62.0938 158.724 62.7476 156.334 63.0182 155.771C63.5819 154.553 64.3033 153.223 64.7092 151.374C64.9797 149.953 64.7543 147.834 65.0023 146.233C65.5885 142.197 66.0845 139.853 68.6774 139.447Z"
            fill="#FEC637" />
        <path fill-rule="evenodd" clip-rule="evenodd"
            d="M71.4497 141.025C72.0584 142.197 71.9682 143.843 71.6075 145.422C71.0664 147.812 70.4576 148.037 70.4125 149.3C70.39 149.705 70.5252 150.156 70.7282 150.945C71.2467 152.93 70.0969 155.297 69.3077 156.514C68.0677 158.386 65.0464 159.739 62.8143 159.513C62.7016 159.491 62.5888 159.468 62.4987 159.378C62.4536 158.972 62.5663 158.499 62.8143 157.867C63.7387 155.477 66.0159 152.05 66.2414 149.796C66.3541 148.713 66.1738 147.834 66.2188 146.842C66.2865 145.151 66.6021 143.505 67.5491 142.062C68.451 140.709 70.2321 139.943 71.4497 141.025Z"
            fill="#B46409" />
        <path fill-rule="evenodd" clip-rule="evenodd"
            d="M51.8549 65.9229C52.7567 71.537 61.7528 74.3778 59.5883 85.7188C58.7541 90.0928 56.3642 104.117 56.9278 108.153C57.514 112.436 61.3921 114.398 63.0154 118.862C65.3828 125.423 65.5632 132.796 67.9531 138.636C65.0897 138.839 62.835 141.048 62.3165 144.543C60.0844 135.93 54.6957 126.37 50.9981 118.411C48.8336 113.789 47.8867 112.887 47.571 111.039C46.2407 102.854 45.5418 91.4231 46.0378 83.3514L46.4662 81.0291L48.4052 71.8752L51.8549 65.9229Z"
            fill="url(#paint0_linear_7974_4404)" />
        <path opacity="0.2" fill-rule="evenodd" clip-rule="evenodd"
            d="M57.0628 102.629C56.8373 104.974 56.7697 106.98 56.9275 108.153C57.1755 109.979 58.0323 111.377 59.0469 112.752C57.1755 113.338 55.3492 114.105 52.8917 115.39C54.7856 121.568 57.4235 128.061 58.7538 134.667C56.2962 129.031 53.2975 123.394 50.9752 118.389C48.8107 113.767 47.8638 112.842 47.5481 111.016C46.2179 102.832 45.5189 91.4005 46.0149 83.3288L46.4433 81.0065L48.3823 71.8526L48.9911 70.8154L49.1038 71.0409C49.6449 72.7319 51.8771 76.3619 52.6211 79.3831C53.771 84.1405 53.7935 87.793 56.7246 87.9283C55.1914 89.0556 52.576 90.9721 51.8996 92.3474C50.5017 95.1883 50.2762 97.0597 49.9606 102.606C52.6436 102.832 55.0336 102.989 57.0628 102.629Z"
            fill="#B9660A" />
        <path fill-rule="evenodd" clip-rule="evenodd"
            d="M57.3792 104.366C57.9654 104.23 58.5065 104.027 58.98 103.757C60.2426 104.027 63.7373 107.004 63.1511 108.537C62.0012 108.785 60.6935 109.123 59.2505 109.551L57.3792 104.366Z"
            fill="#F0B186" />
        <path fill-rule="evenodd" clip-rule="evenodd"
            d="M59.7021 101.93C60.0854 101.096 60.1305 100.262 60.7393 99.4503C61.3255 98.6386 62.4528 97.8044 63.8056 97.9622C65.2937 98.1426 66.7141 99.2925 67.7287 100.6C68.5629 101.682 68.6306 102.314 69.1717 103.576C69.9157 105.29 75.8229 105.854 76.3866 111.107C76.5444 112.55 75.9357 114.331 73.7487 114.286C72.1478 114.263 70.8401 112.527 68.6306 111.265C67.6385 110.701 66.1955 110.34 64.9104 110.115C62.8812 109.754 61.1451 109.145 61.1902 108.807C61.2127 108.604 61.5058 108.401 61.5735 107.793C61.6637 106.981 61.3255 106.124 60.7393 105.47C60.4236 105.11 60.0178 104.839 59.4767 104.568C59.0032 104.343 58.6199 103.96 58.8679 103.351C59.0483 102.922 59.4541 102.472 59.7021 101.93Z"
            fill="#B46409" />
        <path fill-rule="evenodd" clip-rule="evenodd"
            d="M60.1303 100.69C60.2656 100.285 60.4234 99.8787 60.7165 99.4503C61.3027 98.6386 62.4301 97.8044 63.7829 97.9622C65.2709 98.1426 66.6914 99.2925 67.706 100.6C68.5402 101.682 68.6078 102.314 69.149 103.576C69.8704 105.267 70.9076 104.456 72.3957 105.538C74.0641 106.755 76.1159 108.785 76.3639 111.107C76.4541 112.054 76.2511 113.114 75.4846 113.745C75.4169 113.745 75.3493 113.745 75.3042 113.745C72.0124 113.903 67.0972 107.702 65.2033 106.124C64.9102 105.876 64.6396 105.696 64.4367 105.628C62.9712 105.2 60.198 102.584 60.1303 100.69Z"
            fill="#FDC335" />
        <path fill-rule="evenodd" clip-rule="evenodd"
            d="M63.8053 97.9616C65.2934 98.1419 66.6913 99.3143 67.7284 100.6C69.2391 102.471 69.5998 103.688 72.3054 105.176C74.1091 106.169 76.1383 108.806 76.3863 111.129C76.4765 111.986 76.2962 112.955 75.6874 113.586C73.7258 113.902 71.2457 110.7 70.0733 109.393C66.804 105.695 68.946 106.529 64.1435 103.373C61.2801 101.479 59.6568 97.4881 63.8053 97.9616Z"
            fill="#B46409" />
        <path fill-rule="evenodd" clip-rule="evenodd"
            d="M37.9457 70.2296C36.1194 74.3105 34.8117 77.6925 34.1804 79.654C33.1433 82.8782 32.3541 89.6196 31.8807 96.1807C31.6552 99.2245 30.4151 113.947 31.2043 117.352C31.317 117.78 31.6101 118.209 32.061 118.547C33.0756 119.719 35.2176 119.877 36.5027 119.359C46.2654 115.548 51.0453 112.256 62.5215 109.799C61.3491 109.145 59.0719 105.29 58.9591 103.26C55.2615 105.312 48.0691 103.689 42.8383 105.087C45.2959 96.8571 46.8741 94.9406 49.4895 91.9419C53.0519 87.8836 53.3676 84.2085 52.3981 78.9776C51.7668 75.6182 50.3012 72.3715 49.3317 68.5386L37.9457 70.2296Z"
            fill="url(#paint1_linear_7974_4404)" />
        <path fill-rule="evenodd" clip-rule="evenodd"
            d="M35.7354 72.935C36.8176 69.801 37.4489 67.4787 37.7871 65.5848C38.5988 61.0303 39.5232 59.7226 38.9821 55.9574C35.6452 53.5223 35.7805 50.9295 36.3667 49.5992C36.5922 49.0806 38.7792 45.2703 39.2527 44.7291C43.1758 40.1522 54.5618 35.2596 59.2741 34.7185C63.2423 34.2675 63.8961 38.5288 63.1746 42.7C62.0473 49.0581 57.0645 54.0634 55.0804 60.0834C53.9756 63.4203 51.8788 64.3898 54.1334 68.4707C54.7422 73.8143 35.5325 77.6697 35.7354 72.935Z"
            fill="url(#paint2_linear_7974_4404)" />
        <path opacity="0.35" fill-rule="evenodd" clip-rule="evenodd"
            d="M39.0048 59.8128C39.1852 58.6854 39.2077 57.5356 38.9823 55.9573C35.6454 53.5223 35.7807 50.9294 36.3669 49.5992C36.5247 49.261 37.4717 47.57 38.2608 46.2623C39.5008 44.436 45.1375 42.2715 47.0991 47.2543C48.6322 51.2451 43.1985 57.4228 39.0048 59.8128Z"
            fill="#B86509" />
        <path fill-rule="evenodd" clip-rule="evenodd"
            d="M43.4246 35.4616C43.6501 35.7998 46.0626 35.6871 47.0546 35.2587C47.2801 36.3635 47.6408 37.6486 47.9565 39.0465C48.4074 40.9855 54.4048 41.211 55.69 38.4603C55.735 37.7614 55.239 33.8383 55.4645 33.5226C56.2987 32.2826 57.9897 30.9072 58.6436 28.9908C57.6515 26.3528 49.9631 30.2083 43.4246 35.4616Z"
            fill="#FFDFAF" />
        <path fill-rule="evenodd" clip-rule="evenodd"
            d="M43.4471 35.4846C44.0107 35.8453 47.5956 33.9965 47.9338 34.0191C51.0678 34.1769 54.8556 34.4249 55.4644 33.5005C56.2986 32.2604 57.9896 30.8851 58.6435 28.9686C59.6806 25.9023 59.4777 22.4526 56.6819 20.0402C51.8118 15.869 44.1686 18.9128 43.0863 23.6476C42.6354 25.5866 43.3343 26.0827 43.2441 27.3904C43.2216 27.5933 42.8158 28.5853 42.5903 29.0137C42.4325 29.3294 42.7932 30.6596 42.9059 32.3281C42.951 33.8161 43.0863 35.2366 43.4471 35.4846Z"
            fill="#FFDFAF" />
        <path fill-rule="evenodd" clip-rule="evenodd"
            d="M81.5955 39.1369C83.2865 42.4738 82.069 45.247 83.9855 47.5017C86.8714 50.9062 84.7521 54.6715 78.2586 56.0468C75.5305 56.633 68.992 55.9116 65.7453 54.7617C64.9111 54.4686 61.0556 57.1742 54.8778 54.1304C49.5568 51.515 52.1497 46.1714 49.3088 41.7523C47.5051 38.934 46.3101 35.2138 45.0475 32.6886C42.0488 26.6686 41.44 14.9895 50.3009 15.0797C55.3738 13.3436 63.6259 14.2229 65.9933 23.3543C67.4814 29.0586 72.7798 27.5705 74.8316 34.1541C75.7109 36.9273 80.0849 36.1382 81.5955 39.1369Z"
            fill="url(#paint3_linear_7974_4404)" />
        <path fill-rule="evenodd" clip-rule="evenodd"
            d="M9.03997 40.9192C6.85295 40.1526 5.38742 40.829 4.215 39.9948C3.80916 39.7017 2.25344 38.3714 0.968288 37.1088C0.382077 36.5451 0.134065 32.3289 1.17121 31.9907C3.40332 32.9828 4.32773 34.5836 5.68053 34.9218C6.60494 35.1472 7.75481 34.8767 8.43121 34.9218L8.38612 34.8992C6.55985 34.6512 5.34233 33.9748 6.04127 32.8024C6.69513 33.1857 7.46171 33.3435 8.1832 33.3886C10.4379 33.5239 11.3623 35.508 11.8357 36.8608C12.3543 37.8077 12.918 38.6645 13.6846 39.4086L11.9485 43.016C10.9339 42.1141 10.1898 41.573 9.03997 40.9192Z"
            fill="#FFDFAF" />
        <path fill-rule="evenodd" clip-rule="evenodd"
            d="M13.1219 38.6426C13.3699 38.9582 13.6405 39.2739 13.911 39.567C14.3394 39.9954 15.1962 39.9503 15.6697 40.3336C19.1869 43.1519 23.5835 44.64 26.6724 48.022C27.0332 48.4053 27.2135 48.1572 27.7772 47.9543C30.1671 47.0976 42.8609 43.7381 42.906 43.7381C48.8583 43.3323 49.5347 52.1029 44.5068 52.7568C40.3357 53.5233 32.8953 53.8164 29.3104 54.5379C28.4761 54.7183 27.3488 54.8536 26.3117 54.8987C25.3873 55.2143 24.0119 54.9663 22.118 53.7713C21.171 53.1626 20.2466 52.3735 19.4575 51.6069C17.1127 49.2846 14.7227 46.9172 12.3102 44.6174C12.0848 44.392 11.724 43.1294 11.476 42.9264C10.8898 42.3853 10.7996 42.3177 10.1909 41.9118C10.3938 40.4238 12.2877 38.823 13.1219 38.6426Z"
            fill="url(#paint4_linear_7974_4404)" />
        <path fill-rule="evenodd" clip-rule="evenodd"
            d="M59.7256 10.728C58.4179 8.40569 59.9059 8.33805 61.146 6.78234C61.1685 6.26377 61.3715 5.79029 61.5518 5.22662C61.1009 3.44544 61.7773 2.90432 62.6566 2.76904C62.8821 3.33271 63.3781 4.43749 63.5359 4.93352C63.5585 7.95476 63.8065 9.51048 61.146 12.3288L59.5226 11.6299L59.7256 10.728Z"
            fill="#FFDFAF" />
        <path
            d="M85.1612 20.5325C84.6569 23.4049 81.9158 25.3129 79.0652 24.7869C76.2146 24.2609 74.3071 21.5415 74.8113 18.6909C75.3373 15.8185 78.0785 13.9322 80.9073 14.4365C83.8015 14.9407 85.6877 17.6819 85.1612 20.5325Z"
            fill="#FFB63C" />
        <path
            d="M84.1714 20.6321C83.8576 22.3684 82.2048 23.5398 80.4483 23.226C78.6907 22.8914 77.5401 21.2386 77.8544 19.4815C78.1678 17.7245 79.8418 16.5738 81.5776 16.9084C83.3559 17.2223 84.4853 18.8958 84.1714 20.6321Z"
            fill="#FFDE9B" />
    </g>
    <defs>
        <linearGradient id="paint0_linear_7974_4404" x1="56.9155" y1="144.543" x2="56.9155"
            y2="65.9229" gradientUnits="userSpaceOnUse">
            <stop offset="0.520216" stop-color="#FECA3A" />
            <stop offset="0.768733" stop-color="#F7A121" />
        </linearGradient>
        <linearGradient id="paint1_linear_7974_4404" x1="46.733" y1="119.64" x2="46.733"
            y2="68.5386" gradientUnits="userSpaceOnUse">
            <stop stop-color="#FFD23E" />
            <stop offset="0.665734" stop-color="#F7A121" />
        </linearGradient>
        <linearGradient id="paint2_linear_7974_4404" x1="50.6065" y1="40.4739" x2="45.4886"
            y2="71.9672" gradientUnits="userSpaceOnUse">
            <stop stop-color="#FDC234" />
            <stop offset="1" stop-color="#B26308" />
        </linearGradient>
        <linearGradient id="paint3_linear_7974_4404" x1="47.451" y1="19.8783" x2="72.4319"
            y2="52.6793" gradientUnits="userSpaceOnUse">
            <stop stop-color="#F7A020" />
            <stop offset="1" stop-color="#FECB3A" />
        </linearGradient>
        <linearGradient id="paint4_linear_7974_4404" x1="44.6516" y1="50.8659" x2="26.0041"
            y2="51.2274" gradientUnits="userSpaceOnUse">
            <stop stop-color="#E7A627" />
            <stop offset="1" stop-color="#FEC536" />
        </linearGradient>
        <clipPath id="clip0_7974_4404">
            <rect width="84.8203" height="159.269" fill="white"
                transform="matrix(-1 0 0 1 85.2705 0.245117)" />
        </clipPath>
    </defs>
</svg>